<svg width="960" height="540" xmlns="http://www.w3.org/2000/svg" xmlns:xlink="http://www.w3.org/1999/xlink" overflow="hidden"><defs><clipPath id="clip0"><rect x="0" y="0" width="960" height="540"/></clipPath></defs><g clip-path="url(#clip0)"><rect x="0" y="0" width="960" height="540" fill="#FFFFFF"/><text fill="#FF5AAD" font-family="Open Sans SemiBold,Open Sans SemiBold_MSFontService,sans-serif" font-weight="600" font-size="19" transform="translate(54.3491 270)">My role: <tspan fill="#5F6368" font-family="Open Sans,Open Sans_MSFontService,sans-serif" font-weight="400" font-size="16" x="0" y="30">UX designer designing an app for The Golden </tspan><tspan fill="#5F6368" font-family="Open Sans,Open Sans_MSFontService,sans-serif" font-weight="400" font-size="16" x="0" y="59">Platter from initiation stage to delivery.</tspan><tspan fill="#741B47" font-family="Open Sans,Open Sans_MSFontService,sans-serif" font-weight="400" font-size="32" x="0" y="-175">Project overview</tspan></text><path d="M54 188C54 173.088 66.0883 161 81 161 95.9117 161 108 173.088 108 188 108 202.912 95.9117 215 81 215 66.0883 215 54 202.912 54 188Z" fill="#741B47" fill-rule="evenodd"/><text fill="#FF5AAD" font-family="Open Sans SemiBold,Open Sans SemiBold_MSFontService,sans-serif" font-weight="600" font-size="19" transform="translate(480 270)">Responsibilities: <tspan fill="#5F6368" font-family="Arial,Arial_MSFontService,sans-serif" font-weight="400" font-size="16" x="16" y="30">●</tspan><tspan fill="#5F6368" font-family="Open Sans,Open Sans_MSFontService,sans-serif" font-weight="400" font-size="16" x="48" y="30">Conducting interviews </tspan><tspan fill="#5F6368" font-family="Arial,Arial_MSFontService,sans-serif" font-weight="400" font-size="16" x="16" y="59">●</tspan><tspan fill="#5F6368" font-family="Open Sans,Open Sans_MSFontService,sans-serif" font-weight="400" font-size="16" x="48" y="59">Conducting user research </tspan><tspan fill="#5F6368" font-family="Arial,Arial_MSFontService,sans-serif" font-weight="400" font-size="16" x="16" y="88">●</tspan><tspan fill="#5F6368" font-family="Open Sans,Open Sans_MSFontService,sans-serif" font-weight="400" font-size="16" x="48" y="88">paper and digital wireframing</tspan><tspan fill="#5F6368" font-family="Arial,Arial_MSFontService,sans-serif" font-weight="400" font-size="16" x="16" y="117">●</tspan><tspan fill="#5F6368" font-family="Open Sans,Open Sans_MSFontService,sans-serif" font-weight="400" font-size="16" x="48" y="117">low and high fidelity prototyping</tspan><tspan fill="#5F6368" font-family="Arial,Arial_MSFontService,sans-serif" font-weight="400" font-size="16" x="16" y="145">●</tspan><tspan fill="#5F6368" font-family="Open Sans,Open Sans_MSFontService,sans-serif" font-weight="400" font-size="16" x="48" y="145">conducting usability studies</tspan><tspan fill="#5F6368" font-family="Arial,Arial_MSFontService,sans-serif" font-weight="400" font-size="16" x="16" y="174">●</tspan><tspan fill="#5F6368" font-family="Open Sans,Open Sans_MSFontService,sans-serif" font-weight="400" font-size="16" x="48" y="174">iterating on designs </tspan></text><path d="M480 188C480 173.088 492.088 161 507 161 521.912 161 534 173.088 534 188 534 202.912 521.912 215 507 215 492.088 215 480 202.912 480 188Z" fill="#741B47" fill-rule="evenodd"/><path d="M81.4207 187.985C85.1962 187.985 88.1469 185.038 88.1469 181.508 88.1469 177.855 85.1011 175 81.4207 175 77.772 175 74.7262 177.947 74.7262 181.508 74.631 185.038 77.6768 187.985 81.4207 187.985ZM81.4207 191.208C76.9471 191.208 68 193.357 68 197.654L68 200.969 94.9683 200.969 94.9683 197.654C94.8731 193.449 85.8942 191.208 81.4207 191.208Z" fill="#FFFFFF" fill-rule="evenodd"/><path d="M492 189.612 495.348 189.612 495.348 186.449 492 186.449 492 189.612ZM492 195.97 495.348 195.97 495.348 192.806 492 192.806 492 195.97ZM492 183.194 495.348 183.194 495.348 180 492 180 492 183.194ZM498.663 189.612 521.968 189.612 521.968 186.449 498.663 186.449 498.663 189.612ZM498.663 195.97 521.968 195.97 521.968 192.806 498.663 192.806 498.663 195.97ZM498.663 180 498.663 183.194 521.968 183.194 521.968 180 498.663 180Z" fill="#FFFFFF" fill-rule="evenodd"/></g></svg>