<svg version="1.1" viewBox="0.0 0.0 960.0 540.0" fill="none" stroke="none" stroke-linecap="square" stroke-miterlimit="10" xmlns:xlink="http://www.w3.org/1999/xlink" xmlns="http://www.w3.org/2000/svg"><clipPath id="p.0"><path d="m0 0l960.0 0l0 540.0l-960.0 0l0 -540.0z" clip-rule="nonzero"/></clipPath><g clip-path="url(#p.0)"><path fill="#ffffff" d="m0 0l960.0 0l0 540.0l-960.0 0z" fill-rule="evenodd"/><path fill="#fce5cd" d="m0 0l263.68503 0l0 0c145.62924 -6.395204E-14 263.68503 123.24508 263.68503 275.2756c0 152.03049 -118.055786 275.2756 -263.68503 275.2756l-263.68503 0z" fill-rule="evenodd"/><path fill="#000000" fill-opacity="0.0" d="m54.349083 191.04855l517.7008 0l0 77.5748l-517.7008 0z" fill-rule="evenodd"/><path fill="#31394d" d="m70.73971 246.12856l-5.65625 0l0 -29.484375l-10.03125 0l0 -4.78125l25.6875 0l0 4.78125l-10.0 0l0 29.484375zm20.179688 -36.46875l0 9.15625q0 1.4375 -0.09375 2.796875q-0.078125 1.359375 -0.171875 2.109375l0.3125 0q0.8125 -1.359375 2.0 -2.234375q1.203125 -0.890625 2.6875 -1.328125q1.5 -0.453125 3.1875 -0.453125q2.96875 0 5.046875 1.0q2.09375 1.0 3.203125 3.09375q1.125 2.078125 1.125 5.40625l0 16.921875l-5.515625 0l0 -15.890625q0 -3.03125 -1.25 -4.53125q-1.234375 -1.515625 -3.828125 -1.515625q-2.515625 0 -3.984375 1.046875q-1.453125 1.03125 -2.09375 3.0625q-0.625 2.03125 -0.625 4.9375l0 12.890625l-5.515625 0l0 -36.46875l5.515625 0zm35.320312 10.03125q3.4687424 0 5.9531174 1.4375q2.484375 1.421875 3.8125 4.046875q1.34375 2.625 1.34375 6.28125l0 2.953125l-17.328117 0q0.09375 3.765625 2.03125 5.8125q1.9375 2.03125 5.421875 2.03125q2.4843674 0 4.4687424 -0.46875q1.984375 -0.484375 4.09375 -1.421875l0 4.46875q-1.953125 0.921875 -3.96875 1.34375q-2.015625 0.421875 -4.8281174 0.421875q-3.8125 0 -6.71875 -1.484375q-2.890625 -1.5 -4.515625 -4.453125q-1.625 -2.953125 -1.625 -7.328125q0 -4.359375 1.46875 -7.40625q1.484375 -3.046875 4.15625 -4.640625q2.671875 -1.59375 6.234375 -1.59375zm0 4.140625q-2.609375 0 -4.21875 1.6875q-1.59375 1.6875 -1.875 4.953125l11.812492 0q-0.03125 -1.953125 -0.65625 -3.453125q-0.609375 -1.5 -1.875 -2.34375q-1.25 -0.84375 -3.1874924 -0.84375zm44.171867 3.6875l12.796875 0l0 17.203125q-2.6875 0.890625 -5.578125 1.390625q-2.875 0.484375 -6.46875 0.484375q-5.21875 0 -8.84375 -2.078125q-3.625 -2.078125 -5.5 -6.015625q-1.875 -3.953125 -1.875 -9.53125q0 -5.375 2.078125 -9.3125q2.09375 -3.953125 6.078125 -6.125q3.984375 -2.171875 9.65625 -2.171875q2.796875 0 5.40625 0.5625q2.609375 0.546875 4.796875 1.5l-1.96875 4.640625q-1.734375 -0.8125 -3.890625 -1.375q-2.15625 -0.5625 -4.484375 -0.5625q-3.671875 0 -6.34375 1.59375q-2.65625 1.59375 -4.09375 4.484375q-1.421875 2.890625 -1.421875 6.828125q0 3.828125 1.140625 6.71875q1.15625 2.875 3.609375 4.484375q2.453125 1.59375 6.34375 1.59375q1.9375 0 3.296875 -0.203125q1.359375 -0.21875 2.515625 -0.46875l0 -8.84375l-7.25 0l0 -4.796875zm43.40625 5.578125q0 3.234375 -0.84375 5.75q-0.84375 2.5 -2.46875 4.21875q-1.609375 1.71875 -3.890625 2.625q-2.265625 0.90625 -5.125 0.90625q-2.671875 0 -4.90625 -0.90625q-2.21875 -0.90625 -3.84375 -2.625q-1.625 -1.71875 -2.515625 -4.21875q-0.890625 -2.515625 -0.890625 -5.75q0 -4.296875 1.484375 -7.28125q1.484375 -2.984375 4.25 -4.546875q2.765625 -1.578125 6.59375 -1.578125q3.578125 0 6.3125 1.578125q2.75 1.5625 4.296875 4.5625q1.546875 3.0 1.546875 7.265625zm-18.8125 0q0 2.828125 0.6875 4.84375q0.6875 2.015625 2.140625 3.09375q1.453125 1.0625 3.75 1.0625q2.296875 0 3.75 -1.0625q1.453125 -1.078125 2.125 -3.09375q0.6875 -2.015625 0.6875 -4.84375q0 -2.84375 -0.6875 -4.8125q-0.671875 -1.984375 -2.125 -3.03125q-1.453125 -1.046875 -3.765625 -1.046875q-3.421875 0 -5.0 2.296875q-1.5625 2.296875 -1.5625 6.59375zm30.671875 13.03125l-5.53125 0l0 -36.46875l5.53125 0l0 36.46875zm16.570312 0.46875q-4.640625 0 -7.4375 -3.390625q-2.796875 -3.390625 -2.796875 -10.0q0 -6.671875 2.84375 -10.09375q2.84375 -3.421875 7.515625 -3.421875q1.96875 0 3.4375 0.53125q1.484375 0.515625 2.546875 1.40625q1.0625 0.890625 1.8125 2.0l0.265625 0q-0.125 -0.734375 -0.28125 -2.09375q-0.140625 -1.375 -0.140625 -2.546875l0 -9.328125l5.53125 0l0 36.46875l-4.3125 0l-0.984375 -3.546875l-0.234375 0q-0.703125 1.125 -1.78125 2.03125q-1.0625 0.90625 -2.53125 1.453125q-1.453125 0.53125 -3.453125 0.53125zm1.546875 -4.484375q3.546875 0 5.0 -2.03125q1.453125 -2.046875 1.5 -6.125l0 -0.71875q0 -4.359375 -1.40625 -6.6875q-1.40625 -2.34375 -5.140625 -2.34375q-2.96875 0 -4.53125 2.40625q-1.5625 2.40625 -1.5625 6.6875q0 4.296875 1.5625 6.5625q1.5625 2.25 4.578125 2.25zm29.960953 -22.421875q3.46875 0 5.953125 1.4375q2.484375 1.421875 3.8125 4.046875q1.34375 2.625 1.34375 6.28125l0 2.953125l-17.328125 0q0.09375 3.765625 2.03125 5.8125q1.9375 2.03125 5.421875 2.03125q2.484375 0 4.46875 -0.46875q1.984375 -0.484375 4.09375 -1.421875l0 4.46875q-1.953125 0.921875 -3.96875 1.34375q-2.015625 0.421875 -4.828125 0.421875q-3.8125 0 -6.71875 -1.484375q-2.890625 -1.5 -4.515625 -4.453125q-1.625 -2.953125 -1.625 -7.328125q0 -4.359375 1.46875 -7.40625q1.484375 -3.046875 4.15625 -4.640625q2.671875 -1.59375 6.234375 -1.59375zm0 4.140625q-2.609375 0 -4.21875 1.6875q-1.59375 1.6875 -1.875 4.953125l11.8125 0q-0.03125 -1.953125 -0.65625 -3.453125q-0.609375 -1.5 -1.875 -2.34375q-1.25 -0.84375 -3.1875 -0.84375zm30.84375 -4.140625q4.375 0 6.828125 2.265625q2.453125 2.25 2.453125 7.25l0 16.921875l-5.515625 0l0 -15.890625q0 -3.03125 -1.25 -4.53125q-1.234375 -1.515625 -3.828125 -1.515625q-3.78125 0 -5.25 2.328125q-1.453125 2.3125 -1.453125 6.71875l0 12.890625l-5.515625 0l0 -25.953125l4.296875 0l0.765625 3.515625l0.3125 0q0.84375 -1.359375 2.09375 -2.234375q1.25 -0.875 2.8125 -1.3125q1.5625 -0.453125 3.25 -0.453125zm39.960938 -7.828125q6.625 0 9.671875 2.71875q3.046875 2.71875 3.046875 7.609375q0 2.234375 -0.6875 4.234375q-0.6875 2.0 -2.265625 3.546875q-1.5625 1.53125 -4.140625 2.421875q-2.5625 0.890625 -6.3125 0.890625l-3.65625 0l0 12.84375l-5.625 0l0 -34.265625l9.96875 0zm-0.375 4.65625l-3.96875 0l0 12.078125l3.078125 0q2.640625 0 4.484375 -0.625q1.859375 -0.625 2.8125 -1.984375q0.96875 -1.359375 0.96875 -3.578125q0 -2.984375 -1.796875 -4.4375q-1.78125 -1.453125 -5.578125 -1.453125zm24.882812 29.609375l-5.53125 0l0 -36.46875l5.53125 0l0 36.46875zm18.023438 -26.4375q4.921875 0 7.4375 2.1875q2.53125 2.171875 2.53125 6.78125l0 17.46875l-3.921875 0l-1.046875 -3.6875l-0.1875 0q-1.109375 1.40625 -2.28125 2.328125q-1.171875 0.90625 -2.703125 1.359375q-1.53125 0.46875 -3.734375 0.46875q-2.328125 0 -4.15625 -0.859375q-1.828125 -0.859375 -2.890625 -2.609375q-1.046875 -1.765625 -1.046875 -4.453125q0 -4.015625 2.984375 -6.03125q3.0 -2.015625 9.046875 -2.21875l4.5 -0.171875l0 -1.359375q0 -2.6875 -1.265625 -3.828125q-1.25 -1.15625 -3.515625 -1.15625q-1.953125 0 -3.78125 0.5625q-1.828125 0.5625 -3.5625 1.375l-1.78125 -3.890625q1.90625 -1.0 4.328125 -1.625q2.421875 -0.640625 5.046875 -0.640625zm4.5 14.03125l-3.34375 0.125q-4.125 0.140625 -5.796875 1.40625q-1.65625 1.265625 -1.65625 3.46875q0 1.921875 1.140625 2.796875q1.15625 0.875 3.03125 0.875q2.859375 0 4.734375 -1.625q1.890625 -1.625 1.890625 -4.796875l0 -2.25zm22.828125 8.421875q1.078125 0 2.125 -0.203125q1.0625 -0.203125 1.9375 -0.484375l0 4.171875q-0.921875 0.40625 -2.375 0.6875q-1.453125 0.28125 -3.015625 0.28125q-2.203125 0 -3.96875 -0.734375q-1.75 -0.75 -2.78125 -2.546875q-1.03125 -1.8125 -1.03125 -5.0l0 -13.9375l-3.546875 0l0 -2.46875l3.796875 -1.9375l1.8125 -5.5625l3.46875 0l0 5.765625l7.421875 0l0 4.203125l-7.421875 0l0 13.875q0 1.96875 0.984375 2.9375q0.984375 0.953125 2.59375 0.953125zm18.984375 0q1.078125 0 2.125 -0.203125q1.0625 -0.203125 1.9375 -0.484375l0 4.171875q-0.921875 0.40625 -2.375 0.6875q-1.453125 0.28125 -3.015625 0.28125q-2.203125 0 -3.96875 -0.734375q-1.75 -0.75 -2.78125 -2.546875q-1.03125 -1.8125 -1.03125 -5.0l0 -13.9375l-3.546875 0l0 -2.46875l3.796875 -1.9375l1.8125 -5.5625l3.46875 0l0 5.765625l7.421875 0l0 4.203125l-7.421875 0l0 13.875q0 1.96875 0.984375 2.9375q0.984375 0.953125 2.59375 0.953125zm19.671875 -22.453125q3.46875 0 5.953125 1.4375q2.484375 1.421875 3.8125 4.046875q1.34375 2.625 1.34375 6.28125l0 2.953125l-17.328125 0q0.09375 3.765625 2.03125 5.8125q1.9375 2.03125 5.421875 2.03125q2.484375 0 4.46875 -0.46875q1.984375 -0.484375 4.09375 -1.421875l0 4.46875q-1.953125 0.921875 -3.96875 1.34375q-2.015625 0.421875 -4.828125 0.421875q-3.8125 0 -6.71875 -1.484375q-2.890625 -1.5 -4.515625 -4.453125q-1.625 -2.953125 -1.625 -7.328125q0 -4.359375 1.46875 -7.40625q1.484375 -3.046875 4.15625 -4.640625q2.671875 -1.59375 6.234375 -1.59375zm0 4.140625q-2.609375 0 -4.21875 1.6875q-1.59375 1.6875 -1.875 4.953125l11.8125 0q-0.03125 -1.953125 -0.65625 -3.453125q-0.609375 -1.5 -1.875 -2.34375q-1.25 -0.84375 -3.1875 -0.84375zm30.46875 -4.140625q0.65625 0 1.421875 0.078125q0.78125 0.0625 1.34375 0.171875l-0.515625 5.15625q-0.5 -0.140625 -1.21875 -0.203125q-0.703125 -0.078125 -1.265625 -0.078125q-1.484375 0 -2.828125 0.484375q-1.328125 0.484375 -2.359375 1.453125q-1.03125 0.96875 -1.625 2.421875q-0.578125 1.453125 -0.578125 3.375l0 13.578125l-5.53125 0l0 -25.953125l4.3125 0l0.75 4.578125l0.265625 0q0.765625 -1.390625 1.90625 -2.53125q1.15625 -1.15625 2.640625 -1.84375q1.5 -0.6875 3.28125 -0.6875z" fill-rule="nonzero"/><path fill="#000000" fill-opacity="0.0" d="m54.349083 248.91208l517.7008 0l0 58.173218l-517.7008 0z" fill-rule="evenodd"/><path fill="#31394d" d="m71.80221 288.63208l-2.8125 -7.25l-9.15625 0l-2.796875 7.25l-2.6875 0l8.9375 -22.9375l2.390625 0l8.875 22.9375l-2.75 0zm-3.609375 -9.609375l-2.671875 -7.203125q-0.09375 -0.28125 -0.3125 -0.921875q-0.203125 -0.640625 -0.421875 -1.328125q-0.21875 -0.6875 -0.359375 -1.109375q-0.15625 0.640625 -0.34375 1.28125q-0.171875 0.625 -0.34375 1.171875q-0.171875 0.53125 -0.296875 0.90625l-2.71875 7.203125l7.46875 0zm24.296875 9.921875q-2.3125 0 -4.078125 -0.953125q-1.765625 -0.953125 -2.75 -2.90625q-0.984375 -1.953125 -0.984375 -4.921875q0 -3.109375 1.03125 -5.078125q1.046875 -1.984375 2.875 -2.9375q1.828125 -0.953125 4.15625 -0.953125q1.28125 0 2.46875 0.265625q1.203125 0.25 1.96875 0.640625l-0.78125 2.171875q-0.78125 -0.3125 -1.8125 -0.5625q-1.015625 -0.25 -1.90625 -0.25q-1.78125 0 -2.96875 0.765625q-1.171875 0.765625 -1.765625 2.25q-0.578125 1.484375 -0.578125 3.65625q0 2.078125 0.5625 3.546875q0.578125 1.46875 1.703125 2.25q1.140625 0.765625 2.84375 0.765625q1.359375 0 2.453125 -0.28125q1.09375 -0.296875 1.984375 -0.6875l0 2.3125q-0.859375 0.4375 -1.921875 0.671875q-1.046875 0.234375 -2.5 0.234375zm14.875 -17.71875q3.0625 0 4.546875 1.375q1.484375 1.375 1.484375 4.390625l0 11.640625l-1.890625 0l-0.5 -2.53125l-0.125 0q-0.71875 0.9375 -1.5 1.578125q-0.78125 0.625 -1.8125 0.953125q-1.015625 0.3125 -2.5 0.3125q-1.5625 0 -2.78125 -0.546875q-1.203125 -0.546875 -1.90625 -1.65625q-0.6875 -1.109375 -0.6875 -2.8125q0 -2.5625 2.03125 -3.9375q2.03125 -1.375 6.1875 -1.5l2.953125 -0.125l0 -1.046875q0 -2.21875 -0.953125 -3.109375q-0.953125 -0.890625 -2.6875 -0.890625q-1.34375 0 -2.5625 0.390625q-1.21875 0.390625 -2.3125 0.921875l-0.796875 -1.96875q1.15625 -0.59375 2.65625 -1.015625q1.5 -0.421875 3.15625 -0.421875zm3.46875 8.96875l-2.609375 0.109375q-3.203125 0.125 -4.515625 1.046875q-1.3125 0.921875 -1.3125 2.609375q0 1.46875 0.890625 2.171875q0.890625 0.703125 2.359375 0.703125q2.28125 0 3.734375 -1.265625q1.453125 -1.265625 1.453125 -3.796875l0 -1.578125zm13.4375 6.625q0.640625 0 1.3125 -0.109375q0.671875 -0.109375 1.09375 -0.265625l0 2.015625q-0.453125 0.203125 -1.265625 0.34375q-0.796875 0.140625 -1.5625 0.140625q-1.359375 0 -2.46875 -0.46875q-1.109375 -0.484375 -1.78125 -1.625q-0.65625 -1.140625 -0.65625 -3.15625l0 -10.15625l-2.4375 0l0 -1.265625l2.453125 -1.015625l1.03125 -3.71875l1.5625 0l0 3.96875l5.015625 0l0 2.03125l-5.015625 0l0 10.078125q0 1.609375 0.734375 2.40625q0.75 0.796875 1.984375 0.796875zm12.468742 -15.625q2.1875 0 3.75 0.96875q1.5625 0.96875 2.390625 2.71875q0.828125 1.734375 0.828125 4.0625l0 1.609375l-11.828125 0q0.046875 3.015625 1.5 4.59375q1.453125 1.578125 4.09375 1.578125q1.625 0 2.875 -0.296875q1.25 -0.296875 2.59375 -0.875l0 2.28125q-1.296875 0.578125 -2.578125 0.84375q-1.265625 0.265625 -3.0 0.265625q-2.46875 0 -4.3125 -1.0q-1.828125 -1.015625 -2.84375 -2.96875q-1.015625 -1.953125 -1.015625 -4.78125q0 -2.765625 0.921875 -4.78125q0.9375 -2.03125 2.625 -3.125q1.703125 -1.09375 4.0 -1.09375zm-0.03125 2.125q-2.078125 0 -3.3125 1.359375q-1.234375 1.359375 -1.46875 3.796875l9.0625 0q-0.015625 -1.53125 -0.484375 -2.6875q-0.453125 -1.171875 -1.390625 -1.8125q-0.9375 -0.65625 -2.40625 -0.65625zm19.1875 -2.125q0.515625 0 1.078125 0.0625q0.5625 0.046875 1.0 0.140625l-0.328125 2.40625q-0.421875 -0.109375 -0.9375 -0.171875q-0.515625 -0.0625 -0.96875 -0.0625q-1.03125 0 -1.953125 0.421875q-0.90625 0.40625 -1.59375 1.1875q-0.6875 0.765625 -1.078125 1.859375q-0.390625 1.078125 -0.390625 2.40625l0 9.1875l-2.609375 0l0 -17.125l2.15625 0l0.28125 3.15625l0.109375 0q0.53125 -0.953125 1.28125 -1.734375q0.75 -0.796875 1.734375 -1.265625q1.0 -0.46875 2.21875 -0.46875zm7.890625 0.3125l0 17.125l-2.59375 0l0 -17.125l2.59375 0zm-1.265625 -6.40625q0.640625 0 1.09375 0.421875q0.46875 0.40625 0.46875 1.28125q0 0.859375 -0.46875 1.28125q-0.453125 0.421875 -1.09375 0.421875q-0.671875 0 -1.125 -0.421875q-0.4375 -0.421875 -0.4375 -1.28125q0 -0.875 0.4375 -1.28125q0.453125 -0.421875 1.125 -0.421875zm14.859375 6.09375q3.046875 0 4.609375 1.5q1.5625 1.484375 1.5625 4.78125l0 11.15625l-2.5625 0l0 -10.984375q0 -2.140625 -0.984375 -3.203125q-0.96875 -1.0625 -2.984375 -1.0625q-2.84375 0 -4.0 1.609375q-1.15625 1.609375 -1.15625 4.671875l0 8.96875l-2.59375 0l0 -17.125l2.09375 0l0.390625 2.46875l0.140625 0q0.546875 -0.90625 1.390625 -1.515625q0.84375 -0.625 1.890625 -0.9375q1.046875 -0.328125 2.203125 -0.328125zm16.296875 25.125q-3.375 0 -5.203125 -1.265625q-1.828125 -1.25 -1.828125 -3.515625q0 -1.609375 1.015625 -2.75q1.03125 -1.140625 2.84375 -1.515625q-0.671875 -0.3125 -1.15625 -0.9375q-0.46875 -0.625 -0.46875 -1.4375q0 -0.9375 0.515625 -1.640625q0.53125 -0.71875 1.609375 -1.375q-1.34375 -0.546875 -2.1875 -1.84375q-0.828125 -1.3125 -0.828125 -3.046875q0 -1.84375 0.765625 -3.140625q0.765625 -1.3125 2.21875 -2.0q1.453125 -0.6875 3.515625 -0.6875q0.453125 0 0.90625 0.046875q0.46875 0.03125 0.890625 0.109375q0.421875 0.0625 0.734375 0.15625l5.875 0l0 1.671875l-3.15625 0.390625q0.46875 0.609375 0.78125 1.46875q0.3125 0.859375 0.3125 1.90625q0 2.5625 -1.734375 4.078125q-1.734375 1.5 -4.765625 1.5q-0.71875 0 -1.46875 -0.125q-0.765625 0.421875 -1.171875 0.9375q-0.390625 0.515625 -0.390625 1.1875q0 0.5 0.296875 0.796875q0.3125 0.296875 0.890625 0.4375q0.578125 0.125 1.390625 0.125l3.015625 0q2.796875 0 4.28125 1.171875q1.5 1.171875 1.5 3.421875q0 2.84375 -2.3125 4.359375q-2.3125 1.515625 -6.6875 1.515625zm0.078125 -2.03125q2.125 0 3.515625 -0.4375q1.40625 -0.421875 2.09375 -1.234375q0.703125 -0.796875 0.703125 -1.90625q0 -1.03125 -0.46875 -1.5625q-0.46875 -0.515625 -1.375 -0.6875q-0.90625 -0.1875 -2.21875 -0.1875l-2.96875 0q-1.15625 0 -2.015625 0.359375q-0.859375 0.359375 -1.328125 1.0625q-0.453125 0.703125 -0.453125 1.75q0 1.390625 1.171875 2.109375q1.171875 0.734375 3.34375 0.734375zm0.671875 -13.6875q1.859375 0 2.796875 -0.9375q0.9375 -0.9375 0.9375 -2.734375q0 -1.921875 -0.953125 -2.875q-0.953125 -0.96875 -2.8125 -0.96875q-1.78125 0 -2.75 1.0q-0.953125 0.984375 -0.953125 2.890625q0 1.75 0.96875 2.6875q0.96875 0.9375 2.765625 0.9375zm38.75 -9.40625q2.828125 0 4.265625 1.484375q1.4375 1.46875 1.4375 4.734375l0 11.21875l-2.5625 0l0 -11.09375q0 -2.078125 -0.90625 -3.109375q-0.890625 -1.046875 -2.65625 -1.046875q-2.484375 0 -3.609375 1.4375q-1.125 1.4375 -1.125 4.234375l0 9.578125l-2.578125 0l0 -11.09375q0 -1.390625 -0.40625 -2.3125q-0.390625 -0.921875 -1.1875 -1.375q-0.78125 -0.46875 -1.984375 -0.46875q-1.703125 0 -2.734375 0.703125q-1.03125 0.703125 -1.5 2.09375q-0.453125 1.375 -0.453125 3.390625l0 9.0625l-2.59375 0l0 -17.125l2.09375 0l0.390625 2.421875l0.140625 0q0.515625 -0.890625 1.296875 -1.5q0.78125 -0.609375 1.75 -0.921875q0.96875 -0.3125 2.0625 -0.3125q1.953125 0 3.265625 0.734375q1.328125 0.71875 1.921875 2.203125l0.140625 0q0.84375 -1.484375 2.3125 -2.203125q1.46875 -0.734375 3.21875 -0.734375zm17.625 0q2.1875 0 3.75 0.96875q1.5625153 0.96875 2.3906403 2.71875q0.828125 1.734375 0.828125 4.0625l0 1.609375l-11.82814 0q0.046875 3.015625 1.5 4.59375q1.453125 1.578125 4.09375 1.578125q1.625 0 2.875 -0.296875q1.25 -0.296875 2.5937653 -0.875l0 2.28125q-1.2968903 0.578125 -2.5781403 0.84375q-1.265625 0.265625 -3.0 0.265625q-2.46875 0 -4.3125 -1.0q-1.828125 -1.015625 -2.84375 -2.96875q-1.015625 -1.953125 -1.015625 -4.78125q0 -2.765625 0.921875 -4.78125q0.9375 -2.03125 2.625 -3.125q1.703125 -1.09375 4.0 -1.09375zm-0.03125 2.125q-2.078125 0 -3.3125 1.359375q-1.234375 1.359375 -1.46875 3.796875l9.0625 0q-0.015625 -1.53125 -0.484375 -2.6875q-0.453125 -1.171875 -1.390625 -1.8125q-0.9375 -0.65625 -2.40625 -0.65625zm19.51564 -2.125q3.046875 0 4.609375 1.5q1.5625 1.484375 1.5625 4.78125l0 11.15625l-2.5625 0l0 -10.984375q0 -2.140625 -0.984375 -3.203125q-0.96875 -1.0625 -2.984375 -1.0625q-2.84375 0 -4.0 1.609375q-1.15625 1.609375 -1.15625 4.671875l0 8.96875l-2.59375 0l0 -17.125l2.09375 0l0.390625 2.46875l0.140625 0q0.546875 -0.90625 1.390625 -1.515625q0.84375 -0.625 1.890625 -0.9375q1.046875 -0.328125 2.203125 -0.328125zm25.65625 0.3125l0 17.125l-2.125 0l-0.375 -2.40625l-0.140625 0q-0.53125 0.890625 -1.375 1.5q-0.84375 0.609375 -1.90625 0.90625q-1.046875 0.3125 -2.234375 0.3125q-2.03125 0 -3.40625 -0.65625q-1.375 -0.65625 -2.078125 -2.03125q-0.6875 -1.375 -0.6875 -3.53125l0 -11.21875l2.625 0l0 11.03125q0 2.140625 0.96875 3.203125q0.96875 1.046875 2.953125 1.046875q1.90625 0 3.03125 -0.71875q1.140625 -0.71875 1.640625 -2.109375q0.5 -1.40625 0.5 -3.4375l0 -9.015625l2.609375 0zm16.390625 -7.1875l0 6.078125q0 1.046875 -0.0625 2.03125q-0.046875 0.984375 -0.078125 1.53125l0.140625 0q0.703125 -1.15625 2.03125 -1.953125q1.328125 -0.796875 3.390625 -0.796875q3.21875 0 5.125 2.234375q1.921875 2.21875 1.921875 6.609375q0 2.890625 -0.875 4.875q-0.875 1.984375 -2.46875 3.0q-1.59375 1.015625 -3.765625 1.015625q-2.03125 0 -3.34375 -0.75q-1.296875 -0.765625 -2.0 -1.859375l-0.203125 0l-0.53125 2.296875l-1.875 0l0 -24.3125l2.59375 0zm5.0 9.0625q-1.859375 0 -2.953125 0.734375q-1.09375 0.71875 -1.578125 2.1875q-0.46875 1.453125 -0.46875 3.6875l0 0.140625q0 3.234375 1.078125 4.953125q1.078125 1.703125 3.921875 1.703125q2.390625 0 3.578125 -1.75q1.203125 -1.75 1.203125 -5.0q0 -3.3125 -1.1875 -4.984375q-1.171875 -1.671875 -3.59375 -1.671875zm26.75 6.65625q0 2.109375 -0.546875 3.765625q-0.546875 1.65625 -1.578125 2.796875q-1.03125 1.140625 -2.5 1.75q-1.453125 0.59375 -3.296875 0.59375q-1.71875 0 -3.15625 -0.59375q-1.421875 -0.609375 -2.46875 -1.75q-1.03125 -1.140625 -1.609375 -2.796875q-0.5625 -1.65625 -0.5625 -3.765625q0 -2.8125 0.953125 -4.78125q0.953125 -1.984375 2.71875 -3.015625q1.78125 -1.046875 4.234375 -1.046875q2.34375 0 4.09375 1.046875q1.765625 1.046875 2.734375 3.03125q0.984375 1.96875 0.984375 4.765625zm-13.03125 0q0 2.0625 0.546875 3.578125q0.546875 1.515625 1.6875 2.34375q1.140625 0.828125 2.9375 0.828125q1.78125 0 2.921875 -0.828125q1.15625 -0.828125 1.703125 -2.34375q0.546875 -1.515625 0.546875 -3.578125q0 -2.046875 -0.546875 -3.53125q-0.546875 -1.5 -1.6875 -2.3125q-1.140625 -0.8125 -2.953125 -0.8125q-2.671875 0 -3.921875 1.765625q-1.234375 1.765625 -1.234375 4.890625zm32.28125 0q0 2.109375 -0.546875 3.765625q-0.546875 1.65625 -1.578125 2.796875q-1.03125 1.140625 -2.5 1.75q-1.453125 0.59375 -3.296875 0.59375q-1.71875 0 -3.15625 -0.59375q-1.421875 -0.609375 -2.46875 -1.75q-1.03125 -1.140625 -1.609375 -2.796875q-0.5625 -1.65625 -0.5625 -3.765625q0 -2.8125 0.953125 -4.78125q0.953125 -1.984375 2.71875 -3.015625q1.78125 -1.046875 4.234375 -1.046875q2.34375 0 4.09375 1.046875q1.765625 1.046875 2.734375 3.03125q0.984375 1.96875 0.984375 4.765625zm-13.03125 0q0 2.0625 0.546875 3.578125q0.546875 1.515625 1.6875 2.34375q1.140625 0.828125 2.9375 0.828125q1.78125 0 2.921875 -0.828125q1.15625 -0.828125 1.703125 -2.34375q0.546875 -1.515625 0.546875 -3.578125q0 -2.046875 -0.546875 -3.53125q-0.546875 -1.5 -1.6875 -2.3125q-1.140625 -0.8125 -2.953125 -0.8125q-2.671875 0 -3.921875 1.765625q-1.234375 1.765625 -1.234375 4.890625zm20.09375 -15.71875l0 12.625q0 0.625 -0.046875 1.53125q-0.046875 0.890625 -0.078125 1.578125l0.109375 0q0.328125 -0.40625 0.953125 -1.203125q0.640625 -0.796875 1.078125 -1.28125l5.6875 -6.0625l3.046875 0l-6.890625 7.3125l7.390625 9.8125l-3.125 0l-6.046875 -8.109375l-2.078125 1.90625l0 6.203125l-2.578125 0l0 -24.3125l2.578125 0zm16.828125 7.1875l0 17.125l-2.59375 0l0 -17.125l2.59375 0zm-1.265625 -6.40625q0.640625 0 1.09375 0.421875q0.46875 0.40625 0.46875 1.28125q0 0.859375 -0.46875 1.28125q-0.453125 0.421875 -1.09375 0.421875q-0.671875 0 -1.125 -0.421875q-0.4375 -0.421875 -0.4375 -1.28125q0 -0.875 0.4375 -1.28125q0.453125 -0.421875 1.125 -0.421875zm14.859375 6.09375q3.046875 0 4.609375 1.5q1.5625 1.484375 1.5625 4.78125l0 11.15625l-2.5625 0l0 -10.984375q0 -2.140625 -0.984375 -3.203125q-0.96875 -1.0625 -2.984375 -1.0625q-2.84375 0 -4.0 1.609375q-1.15625 1.609375 -1.15625 4.671875l0 8.96875l-2.59375 0l0 -17.125l2.09375 0l0.390625 2.46875l0.140625 0q0.546875 -0.90625 1.390625 -1.515625q0.84375 -0.625 1.890625 -0.9375q1.046875 -0.328125 2.203125 -0.328125zm16.296875 25.125q-3.375 0 -5.203125 -1.265625q-1.828125 -1.25 -1.828125 -3.515625q0 -1.609375 1.015625 -2.75q1.03125 -1.140625 2.84375 -1.515625q-0.671875 -0.3125 -1.15625 -0.9375q-0.46875 -0.625 -0.46875 -1.4375q0 -0.9375 0.515625 -1.640625q0.53125 -0.71875 1.609375 -1.375q-1.34375 -0.546875 -2.1875 -1.84375q-0.828125 -1.3125 -0.828125 -3.046875q0 -1.84375 0.765625 -3.140625q0.765625 -1.3125 2.21875 -2.0q1.453125 -0.6875 3.515625 -0.6875q0.453125 0 0.90625 0.046875q0.46875 0.03125 0.890625 0.109375q0.421875 0.0625 0.734375 0.15625l5.875 0l0 1.671875l-3.15625 0.390625q0.46875 0.609375 0.78125 1.46875q0.3125 0.859375 0.3125 1.90625q0 2.5625 -1.734375 4.078125q-1.734375 1.5 -4.765625 1.5q-0.71875 0 -1.46875 -0.125q-0.765625 0.421875 -1.171875 0.9375q-0.390625 0.515625 -0.390625 1.1875q0 0.5 0.296875 0.796875q0.3125 0.296875 0.890625 0.4375q0.578125 0.125 1.390625 0.125l3.015625 0q2.796875 0 4.28125 1.171875q1.5 1.171875 1.5 3.421875q0 2.84375 -2.3125 4.359375q-2.3125 1.515625 -6.6875 1.515625zm0.078125 -2.03125q2.125 0 3.515625 -0.4375q1.40625 -0.421875 2.09375 -1.234375q0.703125 -0.796875 0.703125 -1.90625q0 -1.03125 -0.46875 -1.5625q-0.46875 -0.515625 -1.375 -0.6875q-0.90625 -0.1875 -2.21875 -0.1875l-2.96875 0q-1.15625 0 -2.015625 0.359375q-0.859375 0.359375 -1.328125 1.0625q-0.453125 0.703125 -0.453125 1.75q0 1.390625 1.171875 2.109375q1.171875 0.734375 3.34375 0.734375zm0.671875 -13.6875q1.859375 0 2.796875 -0.9375q0.9375 -0.9375 0.9375 -2.734375q0 -1.921875 -0.953125 -2.875q-0.953125 -0.96875 -2.8125 -0.96875q-1.78125 0 -2.75 1.0q-0.953125 0.984375 -0.953125 2.890625q0 1.75 0.96875 2.6875q0.96875 0.9375 2.765625 0.9375zm26.5625 -9.375q3.0625 0 4.546875 1.375q1.484375 1.375 1.484375 4.390625l0 11.640625l-1.890625 0l-0.5 -2.53125l-0.125 0q-0.71875 0.9375 -1.5 1.578125q-0.78125 0.625 -1.8125 0.953125q-1.015625 0.3125 -2.5 0.3125q-1.5625 0 -2.78125 -0.546875q-1.203125 -0.546875 -1.90625 -1.65625q-0.6875 -1.109375 -0.6875 -2.8125q0 -2.5625 2.03125 -3.9375q2.03125 -1.375 6.1875 -1.5l2.953125 -0.125l0 -1.046875q0 -2.21875 -0.953125 -3.109375q-0.953125 -0.890625 -2.6875 -0.890625q-1.34375 0 -2.5625 0.390625q-1.21875 0.390625 -2.3125 0.921875l-0.796875 -1.96875q1.15625 -0.59375 2.65625 -1.015625q1.5 -0.421875 3.15625 -0.421875zm3.46875 8.96875l-2.609375 0.109375q-3.203125 0.125 -4.515625 1.046875q-1.3125 0.921875 -1.3125 2.609375q0 1.46875 0.890625 2.171875q0.890625 0.703125 2.359375 0.703125q2.28125 0 3.734375 -1.265625q1.453125 -1.265625 1.453125 -3.796875l0 -1.578125zm15.953125 -9.0q3.203125 0 5.109375 2.203125q1.90625 2.203125 1.90625 6.625q0 2.921875 -0.875 4.90625q-0.875 1.984375 -2.46875 3.0q-1.578125 1.015625 -3.734375 1.015625q-1.359375 0 -2.390625 -0.359375q-1.03125 -0.359375 -1.765625 -0.96875q-0.734375 -0.609375 -1.21875 -1.328125l-0.1875 0q0.046875 0.609375 0.109375 1.46875q0.078125 0.859375 0.078125 1.5l0 7.03125l-2.609375 0l0 -24.78125l2.140625 0l0.34375 2.53125l0.125 0q0.5 -0.78125 1.21875 -1.421875q0.71875 -0.65625 1.75 -1.03125q1.046875 -0.390625 2.46875 -0.390625zm-0.453125 2.1875q-1.78125 0 -2.875 0.6875q-1.078125 0.6875 -1.578125 2.0625q-0.5 1.359375 -0.53125 3.421875l0 0.5q0 2.171875 0.46875 3.671875q0.484375 1.5 1.578125 2.28125q1.109375 0.78125 2.96875 0.78125q1.59375 0 2.65625 -0.859375q1.0625 -0.859375 1.578125 -2.390625q0.53125 -1.546875 0.53125 -3.546875q0 -3.03125 -1.1875 -4.8125q-1.171875 -1.796875 -3.609375 -1.796875zm20.03125 -2.1875q3.203125 0 5.109375 2.203125q1.90625 2.203125 1.90625 6.625q0 2.921875 -0.875 4.90625q-0.875 1.984375 -2.46875 3.0q-1.578125 1.015625 -3.734375 1.015625q-1.359375 0 -2.390625 -0.359375q-1.03125 -0.359375 -1.765625 -0.96875q-0.734375 -0.609375 -1.21875 -1.328125l-0.1875 0q0.046875 0.609375 0.109375 1.46875q0.078125 0.859375 0.078125 1.5l0 7.03125l-2.609375 0l0 -24.78125l2.140625 0l0.34375 2.53125l0.125 0q0.5 -0.78125 1.21875 -1.421875q0.71875 -0.65625 1.75 -1.03125q1.046875 -0.390625 2.46875 -0.390625zm-0.453125 2.1875q-1.78125 0 -2.875 0.6875q-1.078125 0.6875 -1.578125 2.0625q-0.5 1.359375 -0.53125 3.421875l0 0.5q0 2.171875 0.46875 3.671875q0.484375 1.5 1.578125 2.28125q1.109375 0.78125 2.96875 0.78125q1.59375 0 2.65625 -0.859375q1.0625 -0.859375 1.578125 -2.390625q0.53125 -1.546875 0.53125 -3.546875q0 -3.03125 -1.1875 -4.8125q-1.171875 -1.796875 -3.609375 -1.796875z" fill-rule="nonzero"/><path fill="#fce5cd" d="m887.36743 -1.0524935l14.740173 0l0 540.0l-14.740173 0z" fill-rule="evenodd"/><path fill="#000000" fill-opacity="0.0" d="m59.32546 318.042l478.26773 0l0 38.771667l-478.26773 0z" fill-rule="evenodd"/><path fill="#000000" d="m77.65359 331.027l0 7.734375q0 1.609375 -1.015625 2.640625q-1.0 1.015625 -2.71875 1.140625l-0.390625 0.015625q-1.875 0 -2.984375 -1.0q-1.109375 -1.015625 -1.125 -2.78125l0 -7.75l1.484375 0l0 7.703125q0 1.234375 0.671875 1.921875q0.6875 0.671875 1.953125 0.671875q1.265625 0 1.9375 -0.671875q0.6875 -0.6875 0.6875 -1.921875l0 -7.703125l1.5 0zm6.078125 4.359375l2.734375 -4.359375l1.765625 0l-3.59375 5.640625l3.671875 5.734375l-1.78125 0l-2.796875 -4.4375l-2.8125 4.4375l-1.765625 0l3.6875 -5.734375l-3.609375 -5.640625l1.765625 0l2.734375 4.359375zm9.7109375 2.71875q0 -1.953125 0.921875 -3.125q0.921875 -1.1875 2.40625 -1.1875q1.484375 0 2.359375 1.015625l0 -4.40625l1.4375 0l0 12.0l-1.328125 0l-0.0625 -0.90625q-0.875 1.0625 -2.421875 1.0625q-1.46875 0 -2.390625 -1.203125q-0.921875 -1.203125 -0.921875 -3.140625l0 -0.109375zm1.4375 0.15625q0 1.4375 0.59375 2.25q0.59375 0.8125 1.640625 0.8125q1.375 0 2.015625 -1.234375l0 -3.875q-0.65625 -1.203125 -2.0 -1.203125q-1.0625 0 -1.65625 0.828125q-0.59375 0.8125 -0.59375 2.421875zm11.4453125 4.296875q-1.71875 0 -2.796875 -1.125q-1.078125 -1.140625 -1.078125 -3.03125l0 -0.265625q0 -1.25 0.46875 -2.234375q0.484375 -1.0 1.34375 -1.546875q0.875 -0.5625 1.875 -0.5625q1.65625 0 2.5625 1.09375q0.921875 1.078125 0.921875 3.09375l0 0.609375l-5.734375 0q0.03125 1.25 0.734375 2.015625q0.703125 0.765625 1.78125 0.765625q0.765625 0 1.296875 -0.3125q0.53125 -0.3125 0.921875 -0.828125l0.890625 0.6875q-1.0625 1.640625 -3.1875 1.640625zm-0.1875 -7.578125q-0.875 0 -1.46875 0.640625q-0.59375 0.625 -0.734375 1.78125l4.234375 0l0 -0.109375q-0.0625 -1.109375 -0.59375 -1.703125q-0.53125 -0.609375 -1.4375 -0.609375zm10.0703125 5.171875q0 -0.578125 -0.4375 -0.90625q-0.4375 -0.328125 -1.546875 -0.5625q-1.09375 -0.234375 -1.734375 -0.5625q-0.640625 -0.328125 -0.953125 -0.78125q-0.3125 -0.453125 -0.3125 -1.078125q0 -1.03125 0.875 -1.75q0.890625 -0.71875 2.25 -0.71875q1.4375 0 2.328125 0.75q0.90625 0.734375 0.90625 1.890625l-1.453125 0q0 -0.59375 -0.515625 -1.015625q-0.5 -0.4375 -1.265625 -0.4375q-0.78125 0 -1.234375 0.34375q-0.4375 0.34375 -0.4375 0.890625q0 0.53125 0.40625 0.796875q0.421875 0.265625 1.5 0.515625q1.078125 0.234375 1.75 0.578125q0.671875 0.328125 1.0 0.796875q0.328125 0.46875 0.328125 1.15625q0 1.125 -0.90625 1.8125q-0.90625 0.6875 -2.359375 0.6875q-1.015625 0 -1.796875 -0.359375q-0.78125 -0.359375 -1.21875 -1.0q-0.4375 -0.65625 -0.4375 -1.40625l1.4375 0q0.046875 0.734375 0.578125 1.15625q0.546875 0.421875 1.4375 0.421875q0.828125 0 1.3125 -0.328125q0.5 -0.328125 0.5 -0.890625zm4.90625 2.25l-1.453125 0l0 -8.453125l1.453125 0l0 8.453125zm-1.5625 -10.703125q0 -0.34375 0.203125 -0.578125q0.21875 -0.25 0.640625 -0.25q0.421875 0 0.640625 0.25q0.21875 0.234375 0.21875 0.59375q0 0.34375 -0.21875 0.578125q-0.21875 0.234375 -0.640625 0.234375q-0.421875 0 -0.640625 -0.234375q-0.203125 -0.234375 -0.203125 -0.59375zm3.5234375 6.40625q0 -1.984375 0.90625 -3.140625q0.921875 -1.171875 2.4375 -1.171875q1.546875 0 2.4062424 1.09375l0.078125 -0.9375l1.3125 0l0 8.25q0 1.640625 -0.96875 2.578125q-0.96875 0.953125 -2.6093674 0.953125q-0.921875 0 -1.796875 -0.390625q-0.875 -0.390625 -1.328125 -1.0625l0.75 -0.875q0.921875 1.15625 2.265625 1.15625q1.0625 0 1.6406174 -0.59375q0.59375 -0.59375 0.59375 -1.6875l0 -0.71875q-0.8593674 1.0 -2.3593674 1.0q-1.484375 0 -2.40625 -1.1875q-0.921875 -1.203125 -0.921875 -3.265625zm1.453125 0.15625q0 1.4375 0.578125 2.25q0.59375 0.8125 1.65625 0.8125q1.3593674 0 1.9999924 -1.234375l0 -3.859375q-0.65625 -1.21875 -1.9843674 -1.21875q-1.0625 0 -1.65625 0.828125q-0.59375 0.8125 -0.59375 2.421875zm9.24218 -4.3125l0.046875 1.0625q0.96875 -1.21875 2.53125 -1.21875q2.671875 0 2.703125 3.015625l0 5.59375l-1.453125 0l0 -5.59375q0 -0.921875 -0.421875 -1.359375q-0.40625 -0.4375 -1.265625 -0.4375q-0.703125 0 -1.234375 0.375q-0.53125 0.375 -0.828125 0.984375l0 6.03125l-1.453125 0l0 -8.453125l1.375 0zm10.96875 8.609375q-1.71875 0 -2.796875 -1.125q-1.078125 -1.140625 -1.078125 -3.03125l0 -0.265625q0 -1.25 0.46875 -2.234375q0.484375 -1.0 1.34375 -1.546875q0.875 -0.5625 1.875 -0.5625q1.65625 0 2.5625 1.09375q0.921875 1.078125 0.921875 3.09375l0 0.609375l-5.734375 0q0.03125 1.25 0.734375 2.015625q0.703125 0.765625 1.78125 0.765625q0.765625 0 1.296875 -0.3125q0.53125 -0.3125 0.921875 -0.828125l0.890625 0.6875q-1.0625 1.640625 -3.1875 1.640625zm-0.1875 -7.578125q-0.875 0 -1.46875 0.640625q-0.59375 0.625 -0.734375 1.78125l4.234375 0l0 -0.109375q-0.0625 -1.109375 -0.59375 -1.703125q-0.53125 -0.609375 -1.4375 -0.609375zm9.2421875 0.265625q-0.328125 -0.0625 -0.71875 -0.0625q-1.421875 0 -1.921875 1.21875l0 6.0l-1.453125 0l0 -8.453125l1.40625 0l0.03125 0.96875q0.703125 -1.125 2.015625 -1.125q0.421875 0 0.640625 0.109375l0 1.34375zm10.5 7.15625q-0.125 -0.25 -0.203125 -0.890625q-1.0 1.046875 -2.40625 1.046875q-1.25 0 -2.046875 -0.703125q-0.796875 -0.71875 -0.796875 -1.796875q0 -1.328125 1.0 -2.046875q1.0 -0.734375 2.828125 -0.734375l1.40625 0l0 -0.671875q0 -0.75 -0.453125 -1.203125q-0.453125 -0.453125 -1.34375 -0.453125q-0.765625 0 -1.296875 0.390625q-0.515625 0.390625 -0.515625 0.953125l-1.453125 0q0 -0.640625 0.4375 -1.21875q0.453125 -0.59375 1.21875 -0.9375q0.78125 -0.34375 1.703125 -0.34375q1.453125 0 2.28125 0.734375q0.828125 0.71875 0.859375 2.0l0 3.890625q0 1.171875 0.296875 1.859375l0 0.125l-1.515625 0zm-2.390625 -1.109375q0.671875 0 1.28125 -0.34375q0.609375 -0.359375 0.890625 -0.921875l0 -1.734375l-1.140625 0q-2.65625 0 -2.65625 1.5625q0 0.671875 0.453125 1.0625q0.453125 0.375 1.171875 0.375zm7.25 -7.34375l0.046875 1.0625q0.96875 -1.21875 2.53125 -1.21875q2.671875 0 2.703125 3.015625l0 5.59375l-1.453125 0l0 -5.59375q0 -0.921875 -0.421875 -1.359375q-0.40625 -0.4375 -1.265625 -0.4375q-0.703125 0 -1.234375 0.375q-0.53125 0.375 -0.828125 0.984375l0 6.03125l-1.453125 0l0 -8.453125l1.375 0zm7.109375 4.15625q0 -1.953125 0.921875 -3.125q0.921875 -1.1875 2.40625 -1.1875q1.484375 0 2.359375 1.015625l0 -4.40625l1.4375 0l0 12.0l-1.328125 0l-0.0625 -0.90625q-0.875 1.0625 -2.421875 1.0625q-1.46875 0 -2.390625 -1.203125q-0.921875 -1.203125 -0.921875 -3.140625l0 -0.109375zm1.4375 0.15625q0 1.4375 0.59375 2.25q0.59375 0.8125 1.640625 0.8125q1.375 0 2.015625 -1.234375l0 -3.875q-0.65625 -1.203125 -2.0 -1.203125q-1.0625 0 -1.65625 0.828125q-0.59375 0.8125 -0.59375 2.421875zm15.984375 -3.015625q-0.328125 -0.0625 -0.71875 -0.0625q-1.421875 0 -1.921875 1.21875l0 6.0l-1.453125 0l0 -8.453125l1.40625 0l0.03125 0.96875q0.703125 -1.125 2.015625 -1.125q0.421875 0 0.640625 0.109375l0 1.34375zm4.6875 7.3125q-1.71875 0 -2.796875 -1.125q-1.078125 -1.140625 -1.078125 -3.03125l0 -0.265625q0 -1.25 0.46875 -2.234375q0.484375 -1.0 1.34375 -1.546875q0.875 -0.5625 1.875 -0.5625q1.65625 0 2.5625 1.09375q0.921875 1.078125 0.921875 3.09375l0 0.609375l-5.734375 0q0.03125 1.25 0.734375 2.015625q0.703125 0.765625 1.78125 0.765625q0.765625 0 1.296875 -0.3125q0.53125 -0.3125 0.921875 -0.828125l0.890625 0.6875q-1.0625 1.640625 -3.1875 1.640625zm-0.1875 -7.578125q-0.875 0 -1.46875 0.640625q-0.59375 0.625 -0.734375 1.78125l4.234375 0l0 -0.109375q-0.0625 -1.109375 -0.59375 -1.703125q-0.53125 -0.609375 -1.4375 -0.609375zm10.0703125 5.171875q0 -0.578125 -0.4375 -0.90625q-0.4375 -0.328125 -1.546875 -0.5625q-1.09375 -0.234375 -1.734375 -0.5625q-0.640625 -0.328125 -0.953125 -0.78125q-0.3125 -0.453125 -0.3125 -1.078125q0 -1.03125 0.875 -1.75q0.890625 -0.71875 2.25 -0.71875q1.4375 0 2.328125 0.75q0.90625 0.734375 0.90625 1.890625l-1.453125 0q0 -0.59375 -0.515625 -1.015625q-0.5 -0.4375 -1.265625 -0.4375q-0.78125 0 -1.234375 0.34375q-0.4375 0.34375 -0.4375 0.890625q0 0.53125 0.40625 0.796875q0.421875 0.265625 1.5 0.515625q1.078125 0.234375 1.75 0.578125q0.671875 0.328125 1.0 0.796875q0.328125 0.46875 0.328125 1.15625q0 1.125 -0.90625 1.8125q-0.90625 0.6875 -2.359375 0.6875q-1.015625 0 -1.796875 -0.359375q-0.78125 -0.359375 -1.21875 -1.0q-0.4375 -0.65625 -0.4375 -1.40625l1.4375 0q0.046875 0.734375 0.578125 1.15625q0.546875 0.421875 1.4375 0.421875q0.828125 0 1.3125 -0.328125q0.5 -0.328125 0.5 -0.890625zm6.84375 2.40625q-1.71875 0 -2.796875 -1.125q-1.078125 -1.140625 -1.078125 -3.03125l0 -0.265625q0 -1.25 0.46875 -2.234375q0.484375 -1.0 1.34375 -1.546875q0.875 -0.5625 1.875 -0.5625q1.65625 0 2.5625 1.09375q0.921875 1.078125 0.921875 3.09375l0 0.609375l-5.734375 0q0.03125 1.25 0.734375 2.015625q0.703125 0.765625 1.78125 0.765625q0.765625 0 1.296875 -0.3125q0.53125 -0.3125 0.921875 -0.828125l0.890625 0.6875q-1.0625 1.640625 -3.1875 1.640625zm-0.1875 -7.578125q-0.875 0 -1.46875 0.640625q-0.59375 0.625 -0.734375 1.78125l4.234375 0l0 -0.109375q-0.0625 -1.109375 -0.59375 -1.703125q-0.53125 -0.609375 -1.4375 -0.609375zm10.3671875 7.421875q-0.125 -0.25 -0.203125 -0.890625q-1.0 1.046875 -2.40625 1.046875q-1.25 0 -2.046875 -0.703125q-0.796875 -0.71875 -0.796875 -1.796875q0 -1.328125 1.0 -2.046875q1.0 -0.734375 2.828125 -0.734375l1.40625 0l0 -0.671875q0 -0.75 -0.453125 -1.203125q-0.453125 -0.453125 -1.34375 -0.453125q-0.765625 0 -1.296875 0.390625q-0.515625 0.390625 -0.515625 0.953125l-1.453125 0q0 -0.640625 0.4375 -1.21875q0.453125 -0.59375 1.21875 -0.9375q0.78125 -0.34375 1.703125 -0.34375q1.453125 0 2.28125 0.734375q0.828125 0.71875 0.859375 2.0l0 3.890625q0 1.171875 0.296875 1.859375l0 0.125l-1.515625 0zm-2.390625 -1.109375q0.671875 0 1.28125 -0.34375q0.609375 -0.359375 0.890625 -0.921875l0 -1.734375l-1.140625 0q-2.65625 0 -2.65625 1.5625q0 0.671875 0.453125 1.0625q0.453125 0.375 1.171875 0.375zm9.96875 -6.046875q-0.328125 -0.0625 -0.71875 -0.0625q-1.421875 0 -1.921875 1.21875l0 6.0l-1.453125 0l0 -8.453125l1.40625 0l0.03125 0.96875q0.703125 -1.125 2.015625 -1.125q0.421875 0 0.640625 0.109375l0 1.34375zm4.5625 6.125q0.78125 0 1.359375 -0.46875q0.578125 -0.46875 0.640625 -1.171875l1.359375 0q-0.03125 0.734375 -0.5 1.390625q-0.453125 0.65625 -1.234375 1.046875q-0.765625 0.390625 -1.625 0.390625q-1.71875 0 -2.75 -1.15625q-1.015625 -1.15625 -1.015625 -3.15625l0 -0.234375q0 -1.234375 0.453125 -2.1875q0.453125 -0.96875 1.296875 -1.5q0.859375 -0.53125 2.015625 -0.53125q1.421875 0 2.359375 0.859375q0.9375 0.84375 1.0 2.203125l-1.359375 0q-0.0625 -0.828125 -0.625 -1.34375q-0.5625 -0.53125 -1.375 -0.53125q-1.109375 0 -1.71875 0.796875q-0.59375 0.78125 -0.59375 2.28125l0 0.28125q0 1.453125 0.59375 2.25q0.609375 0.78125 1.71875 0.78125zm6.4375 -6.40625q0.953125 -1.171875 2.5 -1.171875q2.671875 0 2.703125 3.015625l0 5.59375l-1.453125 0l0 -5.59375q0 -0.921875 -0.421875 -1.359375q-0.40625 -0.4375 -1.265625 -0.4375q-0.703125 0 -1.234375 0.375q-0.53125 0.375 -0.828125 0.984375l0 6.03125l-1.453125 0l0 -12.0l1.453125 0l0 4.5625zm10.875 7.59375q-1.71875 0 -2.796875 -1.125q-1.078125 -1.140625 -1.078125 -3.03125l0 -0.265625q0 -1.25 0.46875 -2.234375q0.484375 -1.0 1.34375 -1.546875q0.875 -0.5625 1.875 -0.5625q1.6562653 0 2.5625153 1.09375q0.921875 1.078125 0.921875 3.09375l0 0.609375l-5.7343903 0q0.03125 1.25 0.734375 2.015625q0.703125 0.765625 1.78125 0.765625q0.765625 0 1.2968903 -0.3125q0.53125 -0.3125 0.921875 -0.828125l0.890625 0.6875q-1.0625 1.640625 -3.1875153 1.640625zm-0.1875 -7.578125q-0.875 0 -1.46875 0.640625q-0.59375 0.625 -0.734375 1.78125l4.2343903 0l0 -0.109375q-0.0625 -1.109375 -0.59376526 -1.703125q-0.53125 -0.609375 -1.4375 -0.609375zm9.242203 0.265625q-0.328125 -0.0625 -0.71875 -0.0625q-1.421875 0 -1.921875 1.21875l0 6.0l-1.453125 0l0 -8.453125l1.40625 0l0.03125 0.96875q0.703125 -1.125 2.015625 -1.125q0.421875 0 0.640625 0.109375l0 1.34375zm1.2734375 6.390625q0 -0.375 0.21875 -0.625q0.234375 -0.25 0.671875 -0.25q0.453125 0 0.671875 0.25q0.234375 0.25 0.234375 0.625q0 0.359375 -0.234375 0.609375q-0.21875 0.25 -0.671875 0.25q-0.4375 0 -0.671875 -0.25q-0.21875 -0.25 -0.21875 -0.609375zm0 -6.90625q0 -0.375 0.21875 -0.625q0.234375 -0.25 0.671875 -0.25q0.453125 0 0.671875 0.25q0.234375 0.25 0.234375 0.625q0 0.359375 -0.234375 0.609375q-0.21875 0.25 -0.671875 0.25q-0.4375 0 -0.671875 -0.25q-0.21875 -0.25 -0.21875 -0.609375zm9.6171875 3.21875l0 4.453125l-1.5 0l0 -11.375l4.1875 0q1.875 0 2.921875 0.953125q1.0625 0.953125 1.0625 2.515625q0 1.65625 -1.03125 2.5625q-1.03125 0.890625 -2.96875 0.890625l-2.671875 0zm0 -1.234375l2.6875 0q1.203125 0 1.84375 -0.5625q0.640625 -0.5625 0.640625 -1.640625q0 -1.015625 -0.640625 -1.625q-0.640625 -0.609375 -1.75 -0.625l-2.78125 0l0 4.453125zm12.453125 -1.46875q-0.328125 -0.0625 -0.71875 -0.0625q-1.421875 0 -1.921875 1.21875l0 6.0l-1.453125 0l0 -8.453125l1.40625 0l0.03125 0.96875q0.703125 -1.125 2.015625 -1.125q0.421875 0 0.640625 0.109375l0 1.34375zm6.2265625 7.15625q-0.125 -0.25 -0.203125 -0.890625q-1.0 1.046875 -2.40625 1.046875q-1.25 0 -2.046875 -0.703125q-0.796875 -0.71875 -0.796875 -1.796875q0 -1.328125 1.0 -2.046875q1.0 -0.734375 2.828125 -0.734375l1.40625 0l0 -0.671875q0 -0.75 -0.453125 -1.203125q-0.453125 -0.453125 -1.34375 -0.453125q-0.765625 0 -1.296875 0.390625q-0.515625 0.390625 -0.515625 0.953125l-1.453125 0q0 -0.640625 0.4375 -1.21875q0.453125 -0.59375 1.21875 -0.9375q0.78125 -0.34375 1.703125 -0.34375q1.453125 0 2.28125 0.734375q0.828125 0.71875 0.859375 2.0l0 3.890625q0 1.171875 0.296875 1.859375l0 0.125l-1.515625 0zm-2.390625 -1.109375q0.671875 0 1.28125 -0.34375q0.609375 -0.359375 0.890625 -0.921875l0 -1.734375l-1.140625 0q-2.65625 0 -2.65625 1.5625q0 0.671875 0.453125 1.0625q0.453125 0.375 1.171875 0.375zm8.234375 -2.8125l-0.90625 0.953125l0 2.96875l-1.4375 0l0 -12.0l1.4375 0l0 7.25l0.78125 -0.921875l2.625 -2.78125l1.765625 0l-3.296875 3.53125l3.671875 4.921875l-1.6875 0l-2.953125 -3.921875zm9.84375 -3.234375q-0.328125 -0.0625 -0.71875 -0.0625q-1.421875 0 -1.921875 1.21875l0 6.0l-1.453125 0l0 -8.453125l1.40625 0l0.03125 0.96875q0.703125 -1.125 2.015625 -1.125q0.421875 0 0.640625 0.109375l0 1.34375zm2.8984375 7.15625l-1.453125 0l0 -8.453125l1.453125 0l0 8.453125zm-1.5625 -10.703125q0 -0.34375 0.203125 -0.578125q0.21875 -0.25 0.640625 -0.25q0.421875 0 0.640625 0.25q0.21875 0.234375 0.21875 0.59375q0 0.34375 -0.21875 0.578125q-0.21875 0.234375 -0.640625 0.234375q-0.421875 0 -0.640625 -0.234375q-0.203125 -0.234375 -0.203125 -0.59375zm5.8359375 0.203125l0 2.046875l1.578125 0l0 1.109375l-1.578125 0l0 5.25q0 0.5 0.203125 0.765625q0.21875 0.25 0.71875 0.25q0.25 0 0.6875 -0.09375l0 1.171875q-0.5625 0.15625 -1.109375 0.15625q-0.96875 0 -1.46875 -0.578125q-0.484375 -0.59375 -0.484375 -1.671875l0 -5.25l-1.53125 0l0 -1.109375l1.53125 0l0 -2.046875l1.453125 0zm4.8359375 10.5l-1.453125 0l0 -8.453125l1.453125 0l0 8.453125zm-1.5625 -10.703125q0 -0.34375 0.203125 -0.578125q0.21875 -0.25 0.640625 -0.25q0.421875 0 0.640625 0.25q0.21875 0.234375 0.21875 0.59375q0 0.34375 -0.21875 0.578125q-0.21875 0.234375 -0.640625 0.234375q-0.421875 0 -0.640625 -0.234375q-0.203125 -0.234375 -0.203125 -0.59375zm10.0 -0.671875l3.71875 9.28125l3.71875 -9.28125l1.9375 0l0 11.375l-1.5 0l0 -4.4375l0.140625 -4.78125l-3.734375 9.21875l-1.140625 0l-3.734375 -9.1875l0.15625 4.75l0 4.4375l-1.5 0l0 -11.375l1.9375 0zm17.015625 10.53125q-0.84375 1.0 -2.46875 1.0q-1.359375 0 -2.0625 -0.78125q-0.703125 -0.796875 -0.71875 -2.328125l0 -5.5l1.453125 0l0 5.453125q0 1.921875 1.5625 1.921875q1.65625 0 2.203125 -1.234375l0 -6.140625l1.4375 0l0 8.453125l-1.375 0l-0.03125 -0.84375zm5.9609375 -3.078125l-0.90625 0.953125l0 2.96875l-1.4375 0l0 -12.0l1.4375 0l0 7.25l0.78125 -0.921875l2.625 -2.78125l1.765625 0l-3.296875 3.53125l3.671875 4.921875l-1.6875 0l-2.953125 -3.921875zm7.203125 -3.515625q0.953125 -1.171875 2.5 -1.171875q2.671875 0 2.703125 3.015625l0 5.59375l-1.453125 0l0 -5.59375q0 -0.921875 -0.421875 -1.359375q-0.40625 -0.4375 -1.265625 -0.4375q-0.703125 0 -1.234375 0.375q-0.53125 0.375 -0.828125 0.984375l0 6.03125l-1.453125 0l0 -12.0l1.453125 0l0 4.5625zm10.875 7.59375q-1.71875 0 -2.796875 -1.125q-1.078125 -1.140625 -1.078125 -3.03125l0 -0.265625q0 -1.25 0.46875 -2.234375q0.484375 -1.0 1.34375 -1.546875q0.875 -0.5625 1.875 -0.5625q1.65625 0 2.5625 1.09375q0.921875 1.078125 0.921875 3.09375l0 0.609375l-5.734375 0q0.03125 1.25 0.734375 2.015625q0.703125 0.765625 1.78125 0.765625q0.765625 0 1.296875 -0.3125q0.53125 -0.3125 0.921875 -0.828125l0.890625 0.6875q-1.0625 1.640625 -3.1875 1.640625zm-0.1875 -7.578125q-0.875 0 -1.46875 0.640625q-0.59375 0.625 -0.734375 1.78125l4.234375 0l0 -0.109375q-0.0625 -1.109375 -0.59375 -1.703125q-0.53125 -0.609375 -1.4375 -0.609375zm9.2421875 0.265625q-0.328125 -0.0625 -0.71875 -0.0625q-1.421875 0 -1.921875 1.21875l0 6.0l-1.453125 0l0 -8.453125l1.40625 0l0.03125 0.96875q0.703125 -1.125 2.015625 -1.125q0.421875 0 0.640625 0.109375l0 1.34375zm2.8203125 -1.296875l0 9.4375q0 2.4375 -2.21875 2.4375q-0.484375 0 -0.890625 -0.140625l0 -1.15625q0.25 0.0625 0.671875 0.0625q0.484375 0 0.734375 -0.265625q0.25 -0.265625 0.25 -0.90625l0 -9.46875l1.453125 0zm-1.59375 -2.25q0 -0.34375 0.203125 -0.578125q0.21875 -0.25 0.640625 -0.25q0.421875 0 0.640625 0.25q0.21875 0.234375 0.21875 0.59375q0 0.34375 -0.21875 0.578125q-0.21875 0.234375 -0.640625 0.234375q-0.421875 0 -0.640625 -0.234375q-0.203125 -0.234375 -0.203125 -0.59375zm7.4296875 10.859375q-1.71875 0 -2.796875 -1.125q-1.078125 -1.140625 -1.078125 -3.03125l0 -0.265625q0 -1.25 0.46875 -2.234375q0.484375 -1.0 1.34375 -1.546875q0.875 -0.5625 1.875 -0.5625q1.65625 0 2.5625 1.09375q0.921875 1.078125 0.921875 3.09375l0 0.609375l-5.734375 0q0.03125 1.25 0.734375 2.015625q0.703125 0.765625 1.78125 0.765625q0.765625 0 1.296875 -0.3125q0.53125 -0.3125 0.921875 -0.828125l0.890625 0.6875q-1.0625 1.640625 -3.1875 1.640625zm-0.1875 -7.578125q-0.875 0 -1.46875 0.640625q-0.59375 0.625 -0.734375 1.78125l4.234375 0l0 -0.109375q-0.0625 -1.109375 -0.59375 -1.703125q-0.53125 -0.609375 -1.4375 -0.609375zm8.6640625 7.578125q-1.71875 0 -2.796875 -1.125q-1.078125 -1.140625 -1.078125 -3.03125l0 -0.265625q0 -1.25 0.46875 -2.234375q0.484375 -1.0 1.34375 -1.546875q0.875 -0.5625 1.875 -0.5625q1.65625 0 2.5625 1.09375q0.921875 1.078125 0.921875 3.09375l0 0.609375l-5.734375 0q0.03125 1.25 0.734375 2.015625q0.703125 0.765625 1.78125 0.765625q0.765625 0 1.296875 -0.3125q0.53125 -0.3125 0.921875 -0.828125l0.890625 0.6875q-1.0625 1.640625 -3.1875 1.640625zm-0.1875 -7.578125q-0.875 0 -1.46875 0.640625q-0.59375 0.625 -0.734375 1.78125l4.234375 0l0 -0.109375q-0.0625 -1.109375 -0.59375 -1.703125q-0.53125 -0.609375 -1.4375 -0.609375z" fill-rule="nonzero"/></g></svg>