<svg width="960" height="540" xmlns="http://www.w3.org/2000/svg" xmlns:xlink="http://www.w3.org/1999/xlink" overflow="hidden"><defs><clipPath id="clip0"><rect x="0" y="0" width="960" height="540"/></clipPath></defs><g clip-path="url(#clip0)"><rect x="0" y="0" width="960" height="540" fill="#FFFFFF"/><text fill="#FF5AAD" font-family="Open Sans SemiBold,Open Sans SemiBold_MSFontService,sans-serif" font-weight="600" font-size="19" transform="translate(54.3491 270)">The problem: <tspan fill="#31394D" font-family="Open Sans,Open Sans_MSFontService,sans-serif" font-weight="400" font-size="16" x="16" y="30">1.</tspan><tspan fill="#5F6368" font-family="Open Sans,Open Sans_MSFontService,sans-serif" font-weight="400" font-size="16" x="48" y="30">Lack of online platform makes it difficult </tspan><tspan fill="#5F6368" font-family="Open Sans,Open Sans_MSFontService,sans-serif" font-weight="400" font-size="16" x="48" y="59">to compete with other businesses in </tspan><tspan fill="#5F6368" font-family="Open Sans,Open Sans_MSFontService,sans-serif" font-weight="400" font-size="16" x="48" y="88">digital age.</tspan><tspan fill="#31394D" font-family="Open Sans,Open Sans_MSFontService,sans-serif" font-weight="400" font-size="16" x="16" y="117">2.</tspan><tspan fill="#5F6368" font-family="Open Sans,Open Sans_MSFontService,sans-serif" font-weight="400" font-size="16" x="48" y="117">People lack time to to sit and go through </tspan><tspan fill="#5F6368" font-family="Open Sans,Open Sans_MSFontService,sans-serif" font-weight="400" font-size="16" x="48" y="145">the menu making process the traditional </tspan><tspan fill="#5F6368" font-family="Open Sans,Open Sans_MSFontService,sans-serif" font-weight="400" font-size="16" x="48" y="174">way.</tspan><tspan fill="#741B47" font-family="Open Sans,Open Sans_MSFontService,sans-serif" font-weight="400" font-size="32" x="0" y="-175">Project overview</tspan></text><path d="M54 188C54 173.088 66.0883 161 81 161 95.9117 161 108 173.088 108 188 108 202.912 95.9117 215 81 215 66.0883 215 54 202.912 54 188Z" fill="#741B47" fill-rule="evenodd"/><text fill="#FF5AAD" font-family="Open Sans SemiBold,Open Sans SemiBold_MSFontService,sans-serif" font-weight="600" font-size="19" transform="translate(480 270)">The goal: <tspan fill="#5F6368" font-family="Open Sans,Open Sans_MSFontService,sans-serif" font-weight="400" font-size="16" x="0" y="30">Creating an mobile app which makes choosing </tspan><tspan fill="#5F6368" font-family="Open Sans,Open Sans_MSFontService,sans-serif" font-weight="400" font-size="16" x="0" y="59">menu for a wedding easy, efficient and </tspan><tspan fill="#5F6368" font-family="Open Sans,Open Sans_MSFontService,sans-serif" font-weight="400" font-size="16" x="0" y="88">enjoyable.</tspan></text><path d="M480 188C480 173.088 492.088 161 507 161 521.912 161 534 173.088 534 188 534 202.912 521.912 215 507 215 492.088 215 480 202.912 480 188Z" fill="#741B47" fill-rule="evenodd"/><path d="M506.986 196.502 516.23 201.972 513.789 191.652 521.971 184.659 511.206 183.784 506.986 174 502.766 183.784 492 184.659 500.182 191.652 497.742 201.972 506.986 196.502" fill="#FFFFFF" fill-rule="evenodd"/><path d="M82.4083 180.995 82.4083 189.408 79.5916 189.408 79.5916 180.995ZM82.4083 192.206 82.4083 195.005 79.5916 195.005 79.5916 192.206ZM80.9906 174 80.2818 174.019 79.5729 174.075 78.8641 174.168 78.1739 174.28 77.5024 174.448 76.8308 174.634 76.1779 174.858 75.5436 175.101 74.9281 175.38 74.3312 175.698 73.7342 176.033 73.1746 176.388 72.615 176.779 72.0926 177.19 71.5889 177.638 71.104 178.104 70.6375 178.589 70.1899 179.093 69.7794 179.634 69.3878 180.175 69.0333 180.734 68.6975 181.331 68.3804 181.928 68.1006 182.544 67.8394 183.197 67.6343 183.831 67.4478 184.502 67.2798 185.174 67.1678 185.864 67.0746 186.573 67.0187 187.282 67 188.009 67.0187 188.718 67.0746 189.427 67.1678 190.136 67.2798 190.826 67.4478 191.498 67.6343 192.169 67.8394 192.822 68.1006 193.456 68.3804 194.072 68.6975 194.669 69.0333 195.266 69.3878 195.825 69.7794 196.385 70.1899 196.907 70.6375 197.411 71.104 197.896 71.5889 198.362 72.0926 198.81 72.615 199.221 73.1746 199.612 73.7342 199.967 74.3312 200.302 74.9281 200.62 75.5436 200.899 76.1779 201.161 76.8308 201.366 77.5024 201.552 78.1739 201.72 78.8641 201.832 79.5729 201.925 80.2818 201.981 80.9906 202 81.7182 201.981 82.4271 201.925 83.1359 201.832 83.8261 201.72 84.4976 201.552 85.1692 201.366 85.8035 201.161 86.4564 200.899 87.0719 200.62 87.6688 200.302 88.2658 199.967 88.8254 199.612 89.3665 199.221 89.9073 198.81 90.4111 198.362 90.896 197.896 91.3625 197.411 91.8101 196.907 92.2206 196.385 92.6122 195.825 92.9667 195.266 93.3025 194.669 93.6196 194.072 93.8994 193.456 94.1419 192.822 94.3657 192.169 94.5522 191.498 94.7202 190.826 94.8322 190.136 94.9254 189.427 94.9813 188.718 95 188.009 94.9813 187.282 94.9254 186.573 94.8322 185.864 94.7202 185.174 94.5522 184.502 94.3657 183.831 94.1419 183.197 93.8994 182.544 93.6196 181.928 93.3025 181.331 92.9667 180.734 92.6122 180.175 92.2206 179.634 91.8101 179.093 91.3625 178.589 90.896 178.104 90.4111 177.638 89.9073 177.19 89.3665 176.779 88.8254 176.388 88.2658 176.033 87.6688 175.698 87.0719 175.38 86.4564 175.101 85.8035 174.858 85.1692 174.634 84.4976 174.448 83.8261 174.28 83.1359 174.168 82.4271 174.075 81.7182 174.019 80.9906 174Z" fill="#FFFFFF" fill-rule="evenodd"/></g></svg>