<?xml version="1.0" encoding="UTF-8"?><svg id="a" xmlns="http://www.w3.org/2000/svg" viewBox="0 0 533.87 574.19"><defs><style>.b,.c,.d,.e,.f,.g,.h,.i,.j,.k,.l,.m,.n{font-family:SegoeUI-Semilight, Segoe UI;font-weight:300;}.c,.o,.p,.q{font-size:21px;}.r,.d,.e,.f,.s,.g,.h,.i,.j,.t,.k,.l,.m,.n{font-size:24px;}.r,.u,.m{letter-spacing:0em;}.v{font-family:SegoeUI, Segoe UI;font-size:48px;}.d{letter-spacing:.03em;}.w{fill:#fff7e4;}.o{letter-spacing:0em;}.o,.p{font-family:SegoeUI-Bold, Segoe UI;}.e{letter-spacing:-.02em;}.x{fill:#ffd7a1;}.y{fill:#4c0000;}.f{letter-spacing:.03em;}.a`,.n{letter-spacing:-.01em;}.s,.aa{letter-spacing:1.23em;}.h{letter-spacing:.63em;}.i{letter-spacing:-.1em;}.j{letter-spacing:-.02em;}.k{letter-spacing:0em;}.ab{fill:#00555e;}.l{letter-spacing:-.03em;}.ac{fill:#390000;}</style></defs><g><g><polygon class="w" points=".5 573.69 .5 .5 432.58 .5 395.82 165.23 533.37 198.7 533.37 573.69 .5 573.69"/><path class="ac" d="M431.96,1l-36.51,163.64-.21,.96,.95,.23,136.69,33.26v374.1H1V1H431.96m1.25-1H0V574.19H533.87V198.31l-137.45-33.45L433.2,0h0Z"/></g><g><polygon class="x" points="397.01 164.49 433.39 1.47 532.93 197.56 397.01 164.49"/><path class="y" d="M433.57,2.94l98.42,193.89-134.39-32.7L433.57,2.94m-.37-2.94l-36.79,164.86,137.45,33.45L433.2,0h0Z"/></g><path class="ab" d="M355.34,30.73c-6.39,4.98-13.42,9.13-20.65,12.77-1.18,.59-2.37,1.17-3.56,1.74,3.82-.19,8.87,1.35,8.13,5.5-.27,1.54-1.89,2.95-3.51,2.45-1.4-.43-1.95-1.93-1.38-3.2,.06-.14,.22-.2,.36-.21,.56-.05,1.1-.08,1.66-.08,.52,0,.49,.72,0,.79-.97,.13-1.71,.18-1.19,1.39,.71,1.66,2.68,.44,3.16-.66,.65-1.48-.78-3.19-1.95-3.87-2.36-1.36-5.07-1.06-7.67-1.01-12.79,5.82-26.39,10-40.4,11.41-.79,.08-1.58,.15-2.38,.21,1.97,.66,3.93,1.96,5.57,3,2.13,1.35,4.77,2.94,6.33,4.95,.33,.42-.28,.92-.69,.69-.08-.04-.15-.09-.23-.14h-.02c-2.44,.32-5.63-1.52-7.57-2.84-2.12-1.46-3.83-3.33-5.1-5.55-3.42,.2-6.86,.21-10.27-.03,1.41,.74,2.73,1.79,3.79,2.72,2.2,1.91,3.99,4.24,5.3,6.83,.31,.62-.43,1.19-.94,.73-.03-.02-.05-.05-.08-.07-1.27-.05-2.8-.9-3.86-1.49-1.27-.7-2.44-1.57-3.46-2.6-1.71-1.72-3.32-3.97-3.85-6.41-2.5-.28-4.98-.69-7.43-1.26-3.67-.85-7.28-2.03-10.73-3.56,1.01,1.75,2,3.54,3.35,5.03,.96,1.07,2.1,2,3.38,2.66,.81,.42,2.41,1.24,3.23,.43,1.36-1.33-.68-2.89-1.92-1.63-.58,.59-1.44-.28-.91-.9,1.11-1.29,3.41-1.14,4.15,.49,.68,1.5-.39,3.29-2,3.45-2.35,.22-5.02-1.92-6.47-3.57-1.66-1.89-2.87-4.2-3.97-6.48-2.81-1.31-5.6-2.86-7.89-4.95-2.19,1.9-4.78,3.36-7.41,4.6-1.08,2.29-2.27,4.61-3.92,6.51-1.44,1.65-4.1,3.82-6.45,3.61-1.61-.14-2.7-1.93-2.02-3.43,.73-1.63,3.03-1.8,4.15-.52,.53,.61-.31,1.5-.9,.91-1.24-1.25-3.27,.32-1.91,1.64,.83,.81,2.42-.03,3.23-.45,1.27-.67,2.41-1.61,3.36-2.68,1.34-1.5,2.32-3.29,3.31-5.05-3.44,1.55-7.04,2.75-10.7,3.63-2.45,.59-4.93,1.02-7.42,1.31-.52,2.44-2.11,4.7-3.81,6.43-1.01,1.04-2.18,1.91-3.44,2.62-1.05,.59-2.58,1.46-3.85,1.51-.03,.02-.05,.05-.08,.07-.51,.46-1.26-.11-.95-.73,1.3-2.61,3.06-4.95,5.26-6.87,1.06-.93,2.37-1.99,3.78-2.74-3.41,.26-6.85,.27-10.27,.09-1.25,2.23-2.95,4.11-5.06,5.58-1.93,1.34-5.11,3.2-7.55,2.9h-.02c-.08,.04-.15,.09-.23,.13-.4,.23-1.01-.26-.69-.69,1.55-2.02,4.18-3.63,6.3-4.99,1.63-1.05,3.58-2.37,5.55-3.04-.79-.05-1.59-.12-2.38-.19-14.02-1.31-27.65-5.41-40.48-11.14-2.59-.03-5.31-.31-7.66,1.06-1.17,.68-2.58,2.4-1.93,3.88,.49,1.09,2.47,2.3,3.17,.64,.51-1.22-.23-1.26-1.2-1.38-.49-.06-.52-.78,0-.79,.56,0,1.1,.02,1.66,.07,.14,.01,.3,.07,.36,.21,.58,1.27,.04,2.77-1.36,3.21-1.62,.51-3.24-.88-3.53-2.42-.77-4.14,4.28-5.72,8.09-5.56-1.2-.56-2.39-1.13-3.58-1.72-7.25-3.59-14.31-7.69-20.73-12.63-2.2-1.36-6.55-5.51-3.26-7.78,2.55-1.76,4.34,2.47,1.57,2.83-.42,.06-.53-.68-.1-.75-.8-1.71-1.32-1.72-1.58-.03-.02,.41,.04,.8,.19,1.17,.24,.69,.73,1.29,1.18,1.85,.2,.24,.41,.49,.61,.73,6.28,4.22,12.64,8.33,19.37,11.81,6.72,3.48,13.68,6.3,20.87,8.65-3.33-2.04-6.33-4.67-9.17-7.53-2.98-2.99-5.75-6.19-8.78-9.13-1.58-1.53-3.31-2.89-5.46-3.51-1.04-.3-2.26-.5-3.33-.22-.71,.19-1.54,.67-1.85,1.38-.06,.43-.11,.87-.17,1.3,1.92,1.01,2.68,.88,2.26-.41-.24-.52,.54-.98,.77-.45,.53,1.22-.14,2.74-1.58,2.85-1.72,.13-2.79-1.75-2.33-3.25,.57-1.83,2.52-2.55,4.27-2.5,2.47,.07,4.63,1.52,6.48,3.02,4.8,3.88,8.6,8.91,13.18,13.05,2.76,2.49,5.91,4.85,9.33,6.55,1.17,.35,2.34,.7,3.52,1.02-1.29-1.62-1.63-4.05,.21-5.43,1.04-.78,2.79-.75,3.51,.46,.61,1.02,.15,2.44-1.02,2.74-.41,.11-.63-.44-.28-.67,1.23-.82,.13-2.39-1.16-1.86-.93,.38-1.25,1.48-1.2,2.4,.06,1.12,.72,2.1,1.57,2.81,6.51,1.73,13.16,3.01,19.85,3.56-.87-.79-1.53-1.79-2.12-2.92-.02-.05-.04-.09-.06-.14-1.28,.22-2.66-.28-3.68-1.07-2.24-1.72-3.51-4.99-6.7-4.93-.44,0-.52-.54-.21-.77,1.43-1.02,2.74-1.58,4.28-1.12-.31-1.26-.29-2.5,.06-3.81,.09-.34,.64-.46,.8-.11,.44,.95,1.02,1.7,1.81,2.31,.3-1.7,1.53-2.83,3.18-3.54,.42-.18,.74,.56,.32,.75-.13,.06-.26,.12-.39,.19-.58,2.69,2.06,4.76,2.86,7.08,.04,.13,.08,.26,.11,.39,.65-2.39,1.79-4.67,3.29-6.56,.22-.27,.67-.04,.67,.27-.06,4.49-.34,9.31-3.82,12.56,.34,.54,.72,1.05,1.16,1.51,6.33,.41,12.7,.14,19.01-1.06,1.77-.33,3.52-.74,5.25-1.22,2.22-1.13,2.98-3.86,2.81-6.32-.09-1.31-.37-2.6-.71-3.86-.38-1.41-.81-3.49-1.83-4.54-.58-.59,.14-1.48,.86-1.12,2.92,1.47,6.22,4.09,6.42,7.63,.15,2.68-1.9,5.78-4.29,7.22,1.2-.4,2.38-.84,3.55-1.32,3.52-1.45,6.72-3.42,10.04-5.21-3.77-2.75-7.4-5.66-10.38-9.29-.85-1.04-1.78-2.23-2.59-3.51-.61-.45-1.23-.89-1.88-1.29-1.38-.86-2.84-1.59-4.33-2.23-1.29-.55-2.65-.89-3.97-1.31,.62,3.42-.72,6.79-2.31,9.84-.16,.31-.64,.23-.73-.09-.28-1.05-.49-2.13-.58-3.21-2.12,1.41-4.79,3.13-4.89,5.95,0,.27-.31,.47-.55,.32-1.44-.89-2.02-2.18-2-3.67-.7,.39-1.54,.47-2.45,.37-.36-.04-.6-.31-.52-.68,.09-.42,.1-.84,.14-1.25-1.73-.44-2.63-1.91-2.7-3.78-.02-.6,.85-.64,.99-.12,.09,.09,.15,.21,.16,.37,.05,1.87,1.94-.1,2.18-.36,.28-.3,.53-.62,.81-.91,.59-.61,1.25-1.18,1.88-1.74,.92-.81,1.89-1.45,3.03-1.91,.71-.29,1.7-.57,2.69-.68-2.36-.95-4.36-2.78-5.56-5.07-.2-.39,.14-1.02,.63-.83,3.69,1.47,7.4,2.6,9.83,5.97,.05,.07,.08,.15,.08,.22,3.08,.45,6.32,2.17,8.79,3.76h.01c-.26-.59-.48-1.19-.64-1.81-.82-.94-1.63-1.88-2.43-2.85-.62-.76-1.22-1.57-1.9-2.28-.44-.46-1.08-1.15-1.75-1.25l-1.35,.1c-.23,1.25-.02,1.71,.64,1.37,.5-.17,.81,.49,.49,.84-.83,.91-2.37,.34-2.79-.74-.54-1.37,.69-2.74,2.02-2.89,1.89-.21,3.2,1.32,4.24,2.65,.86,1.11,1.7,2.22,2.53,3.35-.06-1,.06-2,.44-2.99,1.25-3.25,6.2-4.91,8-1.14,.65,1.38,.34,3.02-.93,3.91-1.02,.72-2.86,1.09-3.57-.19-.19-.34,.04-.86,.47-.83,.46,.03,.92,.25,1.37,.23,1.09-.07,1.77-1.09,1.47-2.13-.62-2.18-3.32-1.86-4.55-.51-2.47,2.71-.28,6.81,1.33,9.33,.02,.04,.05,.07,.07,.11,1.88,1.54,3.6,3.36,4.57,5.41,.03,.07,.04,.14,.02,.21,2.23,2.27,4.68,4.36,7.06,6.43,.13-.11,.33-.14,.5-.06,.04,.02,.08,.04,.12,.06,.05,.03,.08,.06,.11,.11h0c-.1-.17-.06-.4,.12-.5,.04-.02,.08-.04,.12-.06,.17-.08,.37-.05,.5,.05,2.7-2.37,5.47-4.76,7.91-7.42,.6-.9,1.34-1.75,2.14-2.54,.56-.73,1.1-1.49,1.59-2.27,1.59-2.53,3.75-6.64,1.27-9.34-1.24-1.35-3.94-1.64-4.55,.54-.29,1.04,.39,2.06,1.49,2.12,.45,.02,.91-.2,1.37-.24,.43-.03,.66,.48,.48,.82-.7,1.28-2.54,.92-3.57,.21-1.27-.89-1.6-2.53-.96-3.91,1.77-3.78,6.73-2.16,8,1.08,.51,1.29,.57,2.62,.35,3.92,.86-1.18,1.73-2.35,2.62-3.52,1.04-1.34,2.34-2.88,4.22-2.68,1.34,.14,2.57,1.5,2.04,2.88-.41,1.08-1.95,1.66-2.78,.76-.32-.35-.02-1.01,.48-.84,.66,.33,.87-.12,.63-1.38-.45-.03-.9-.06-1.35-.09-.66,.11-1.3,.8-1.74,1.27-.68,.71-1.26,1.53-1.88,2.29-.92,1.13-1.86,2.23-2.81,3.32-.22,.59-.49,1.17-.8,1.74,.19-.13,.39-.26,.58-.39,2.45-1.6,5.69-3.34,8.76-3.82,0-.07,.02-.14,.08-.22,2.41-3.38,6.11-4.54,9.79-6.04,.49-.2,.84,.43,.64,.82-1.18,2.3-3.17,4.14-5.52,5.11,1,.1,1.98,.38,2.7,.66,1.14,.45,2.12,1.09,3.05,1.89,.64,.56,1.3,1.12,1.89,1.72,.28,.29,.54,.61,.82,.91,.24,.26,2.14,2.21,2.18,.34,0-.16,.06-.28,.16-.37,.13-.53,1.01-.49,.99,.11-.06,1.87-.95,3.34-2.67,3.79,.04,.42,.05,.84,.15,1.25,.08,.37-.16,.64-.52,.68-.91,.11-1.75,.03-2.45-.35,.03,1.5-.54,2.78-1.97,3.68-.25,.15-.54-.05-.56-.32-.11-2.82-2.79-4.52-4.93-5.92-.08,1.08-.28,2.16-.56,3.21-.08,.32-.56,.4-.73,.1-1.6-3.03-2.97-6.4-2.37-9.82-1.32,.43-2.68,.77-3.96,1.33-1.49,.65-2.94,1.39-4.32,2.26-1.06,.67-2.06,1.42-3.01,2.21-.47,.65-.96,1.27-1.42,1.84-2.98,3.68-6.62,6.63-10.4,9.42,.03,.18-.02,.39-.19,.56h-.01c3.44,1.82,6.73,3.84,10.36,5.31,1.17,.47,2.36,.9,3.56,1.3-2.4-1.42-4.47-4.51-4.34-7.19,.18-3.54,3.47-6.18,6.37-7.68,.71-.37,1.44,.52,.87,1.12-1.01,1.06-1.43,3.15-1.8,4.55-.33,1.26-.6,2.56-.69,3.87-.15,2.46,.62,5.19,2.85,6.3,1.74,.47,3.49,.86,5.26,1.19,6.32,1.15,12.69,1.38,19.02,.93,.44-.47,.81-.98,1.15-1.52-3.5-3.22-3.81-8.04-3.9-12.53,0-.31,.45-.55,.66-.28,1.51,1.88,2.67,4.15,3.33,6.54,.03-.13,.07-.26,.11-.39,.78-2.33,3.41-4.41,2.81-7.1-.13-.06-.25-.13-.39-.19-.43-.19-.11-.93,.31-.75,1.66,.69,2.89,1.82,3.21,3.52,.79-.62,1.36-1.37,1.79-2.33,.16-.36,.71-.24,.8,.1,.36,1.3,.39,2.54,.08,3.81,1.54-.47,2.85,.08,4.28,1.09,.31,.22,.23,.77-.21,.77-3.19-.03-4.43,3.24-6.66,4.98-1.02,.79-2.39,1.31-3.67,1.09-.01,.05-.03,.09-.06,.14-.58,1.13-1.23,2.13-2.1,2.93,6.69-.59,13.33-1.92,19.83-3.69,.85-.72,1.5-1.71,1.56-2.82,.04-.92-.29-2.02-1.22-2.39-1.3-.52-2.39,1.05-1.15,1.87,.34,.23,.13,.77-.28,.67-1.17-.29-1.64-1.7-1.03-2.73,.71-1.22,2.46-1.25,3.5-.48,1.85,1.37,1.53,3.8,.25,5.43,1.18-.34,2.35-.68,3.52-1.05,3.41-1.73,6.54-4.1,9.28-6.61,4.56-4.17,8.32-9.22,13.1-13.13,1.84-1.51,4-2.97,6.46-3.06,1.75-.06,3.71,.64,4.29,2.47,.48,1.5-.59,3.39-2.3,3.27-1.45-.1-2.13-1.62-1.6-2.84,.22-.52,1.02-.08,.77,.45-.41,1.29,.35,1.42,2.26,.4-.06-.43-.12-.87-.17-1.3-.32-.71-1.15-1.18-1.86-1.37-1.07-.27-2.29-.07-3.33,.24-2.14,.63-3.86,2.01-5.43,3.55-3.02,2.95-5.77,6.17-8.72,9.18-2.82,2.87-5.81,5.53-9.12,7.59,7.17-2.4,14.11-5.26,20.81-8.79,6.7-3.53,13.03-7.68,19.29-11.94,.2-.25,.41-.49,.6-.74,.45-.56,.93-1.17,1.17-1.86,.14-.38,.2-.77,.18-1.17-.26-1.69-.79-1.68-1.58,.04,.43,.07,.33,.81-.1,.75-2.78-.34-1.01-4.59,1.55-2.85,3.3,2.25-1.02,6.43-3.21,7.8Zm-156.13,16.73c-.48-1.07-1.31-1.92-1.8-2.99-.49-1.07-.98-2.33-.82-3.5-1.01,.7-1.62,1.68-1.62,3.09,0,.35-.41,.62-.72,.42-.89-.57-1.6-1.26-2.16-2.1-.12,1,0,1.98,.34,3,.12,.35-.3,.62-.59,.46-1.24-.66-2.27-.44-3.28,.13,1.37,.28,2.37,1.1,3.37,2.28,1.42,1.67,3.49,4.41,6.05,3.58,1.88-.61,1.9-2.88,1.24-4.38Zm3.16,11.36c-1.61,1.09-3.5,1.94-5.08,2.98-1.12,.74-2.23,1.5-3.3,2.31-.5,.38-.98,.8-1.47,1.21,.61-.13,1.22-.24,1.81-.43,1.24-.4,2.4-.98,3.5-1.69,1.78-1.16,3.31-2.66,4.54-4.38Zm-7.51-10.6c.13,.28-.19,.55-.43,.33-.48-.42-.92-1.04-1.1-1.66-.04-.15,.13-.3,.27-.21,.54,.35,.99,.95,1.26,1.53Zm2.04-1.05c.13,.15-.08,.36-.22,.22-.33-.33-.66-.65-.99-.98-.29-.29-.67-.6-.85-.97-.07-.14,.07-.29,.21-.21,.36,.2,.65,.59,.92,.9,.31,.35,.62,.7,.92,1.05Zm2.69,4.47c-.14,.18-.31,.34-.5,.48,.16,.33,.33,.66,.5,.99-.02-.49-.02-.98,0-1.47Zm.52,1.84c2.62-2.8,3.05-6.72,3.19-10.46-2.1,3.02-3.15,6.79-3.19,10.46Zm16.92-24.71c-.59-.26-1.14-.47-1.9-.47-.95,0-1.91,.14-2.82,.44-1.81,.6-3.27,1.84-4.57,3.21-.87,.91-1.7,2.33-3.14,2.22,.42,.43,1,.7,1.74,.8,.31,.04,.48,.44,.41,.71-.11,.41-.13,.83-.19,1.24,.77,.05,1.52-.1,2.04-.83,.31-.43,1.02-.19,.89,.37-.36,1.47-.25,2.78,.81,3.76,.54-3.12,2.9-4.69,5.45-6.41,.01,0,.03-.01,.04-.02,0-.55,.04-1.1,.13-1.65,.17-1.06,.51-2.34,1.13-3.36Zm-.87,29.17c-.68,.42-1.4,.77-2.07,1.2-1.16,.74-2.28,1.55-3.3,2.47-1.76,1.59-3.21,3.45-4.36,5.52,.86-.26,1.77-.4,2.61-.8,1.33-.63,2.55-1.51,3.62-2.54,1.76-1.7,2.71-3.68,3.51-5.85Zm2.28-30.96c-1.95-2.39-4.83-3.68-7.76-4.56,1.77,2.63,4.59,4.19,7.76,4.56Zm-.25,2.09h0c-.54,.96-1.13,1.88-1.35,3.05-.31,1.58-.21,3.16,.09,4.71,1.04-2.48,1.16-5.1,1.27-7.77Zm10.96,15.18c.38,1.65,.65,3.36,.45,5.05-.06,.53-.18,1.04-.34,1.54,1.47-1.48,2.98-2.82,2.69-5.36-.3-2.56-2.21-4.03-4.16-5.37,.2,.46,.42,.92,.56,1.34,.32,.92,.59,1.85,.8,2.8Zm30.3-2.51c.14-.42,.35-.88,.55-1.34-1.95,1.35-3.84,2.84-4.13,5.39-.28,2.54,1.24,3.87,2.72,5.34-.17-.5-.28-1.01-.35-1.54-.21-1.69,.05-3.4,.42-5.05,.21-.95,.48-1.89,.79-2.81Zm9.81-14.54c3.16-.39,5.98-1.97,7.73-4.61-2.92,.89-5.79,2.21-7.73,4.61Zm1.65,5.13c-.24-1.17-.82-2.09-1.37-3.04h0c.13,2.67,.27,5.29,1.33,7.76,.29-1.56,.37-3.14,.05-4.72Zm1.68-3.83c-.76,0-1.31,.22-1.9,.48,.63,1.02,.98,2.29,1.16,3.35,.09,.55,.13,1.1,.14,1.65,.01,0,.03,.01,.04,.02,2.56,1.69,4.93,3.25,5.49,6.37,1.05-.99,1.15-2.3,.78-3.77-.14-.56,.57-.81,.88-.38,.52,.73,1.27,.87,2.04,.82-.06-.41-.08-.83-.19-1.24-.07-.27,.09-.67,.4-.71,.73-.11,1.32-.39,1.73-.81-1.44,.12-2.29-1.29-3.16-2.2-1.31-1.36-2.78-2.59-4.59-3.17-.9-.29-1.87-.42-2.82-.42Zm1.24,30.83c-.67-.42-1.4-.77-2.08-1.19,.81,2.17,1.77,4.14,3.55,5.83,1.07,1.01,2.29,1.89,3.63,2.51,.84,.39,1.75,.53,2.61,.78-1.16-2.06-2.62-3.91-4.4-5.49-1.03-.92-2.15-1.72-3.32-2.45Zm13.95-5.75c-.07-3.67-1.13-7.43-3.26-10.43,.17,3.74,.62,7.65,3.26,10.43Zm-2.21,5.36c1.24,1.71,2.78,3.2,4.57,4.35,1.1,.7,2.26,1.27,3.51,1.67,.59,.19,1.21,.3,1.82,.42-.49-.41-.98-.82-1.48-1.2-1.08-.81-2.19-1.56-3.32-2.29-1.59-1.03-3.48-1.87-5.1-2.95Zm4.35-7.01c2.56,.81,4.61-1.94,6.02-3.62,.99-1.19,1.99-2.02,3.35-2.31-1.02-.57-2.04-.78-3.28-.11-.29,.16-.71-.1-.6-.46,.34-1.02,.44-2,.32-3-.55,.85-1.26,1.54-2.14,2.12-.31,.2-.72-.06-.72-.41-.01-1.41-.63-2.38-1.64-3.08,.17,1.18-.31,2.44-.8,3.51-.48,1.07-1.31,1.93-1.78,3-.66,1.5-.61,3.77,1.27,4.37Zm-1.12,.28c-.19-.14-.36-.3-.51-.48,.03,.49,.03,.98,.01,1.47,.17-.33,.33-.66,.49-.99Zm2.15-4.96c.3-.35,.61-.7,.92-1.05,.27-.31,.55-.7,.91-.9,.14-.08,.28,.08,.21,.21-.18,.37-.55,.69-.84,.98-.33,.33-.65,.66-.98,.99-.14,.14-.35-.07-.22-.22Zm2.05,1.04c.26-.58,.71-1.19,1.25-1.54,.14-.09,.31,.06,.27,.21-.17,.62-.61,1.24-1.08,1.67-.24,.22-.56-.05-.43-.33Z"/></g><text class="v" transform="translate(128.69 117.18)"><tspan x="0" y="0">Instructions</tspan></text><text transform="translate(85.51 189.63)"><tspan class="p"><tspan x="0" y="0">KEY GUIDE</tspan></tspan><tspan><tspan class="p" x="0" y="54" xml:space="preserve"> Mouse click</tspan><tspan class="g" x="121.66" y="54">- </tspan><tspan class="i" x="137.81" y="54">T</tspan><tspan class="g" x="147.76" y="54">o ma</tspan><tspan class="j" x="200.31" y="54">k</tspan><tspan class="g" x="211.11" y="54">e cells acti</tspan><tspan class="m" x="316.15" y="54">v</tspan><tspan class="g" x="327.19" y="54" xml:space="preserve">e  </tspan><tspan class="d" x="352.66" y="54">	</tspan></tspan><tspan class="g"><tspan class="aa" x="0" y="82.8" xml:space="preserve">				</tspan><tspan x="144" y="82.8">and </tspan><tspan class="a`" x="189.59" y="82.8">p</tspan><tspan x="203.04" y="82.8">assi</tspan><tspan class="u" x="239.93" y="82.8">v</tspan><tspan x="250.97" y="82.8">e</tspan></tspan><tspan/><tspan><tspan class="p" x="0" y="134.6" xml:space="preserve">  S</tspan><tspan class="o" x="23.36" y="134.6">p</tspan><tspan class="p" x="36.18" y="134.6">ace </tspan><tspan class="o" x="74.71" y="134.6">b</tspan><tspan class="p" x="87.53" y="134.6">ar</tspan><tspan class="g" x="107.18" y="134.6">- Ma</tspan><tspan class="j" x="156.12" y="134.6">k</tspan><tspan class="g" x="166.93" y="134.6">e all cells </tspan><tspan class="n" x="265.41" y="134.6">p</tspan><tspan class="g" x="278.86" y="134.6">assi</tspan><tspan class="m" x="315.75" y="134.6">v</tspan><tspan class="g" x="326.79" y="134.6">e</tspan></tspan><tspan/><tspan><tspan class="p" x="0" y="186.4" xml:space="preserve">  R</tspan><tspan class="g" x="25.3" y="186.4">- random cell acti</tspan><tspan class="e" x="205.5" y="186.4">v</tspan><tspan class="g" x="216.24" y="186.4">ation</tspan></tspan><tspan/><tspan><tspan class="p" x="0" y="238.2" xml:space="preserve">  S</tspan><tspan class="g" x="23.36" y="238.2">- </tspan><tspan class="l" x="39.51" y="238.2">S</tspan><tspan class="g" x="51.07" y="238.2">ta</tspan><tspan class="f" x="70.73" y="238.2">r</tspan><tspan class="g" x="79.55" y="238.2">t/</tspan><tspan class="l" x="96.25" y="238.2">S</tspan><tspan class="k" x="107.82" y="238.2">t</tspan><tspan class="g" x="115.26" y="238.2">op</tspan></tspan><tspan class="c"><tspan x="0" y="261.2"> </tspan></tspan><tspan><tspan class="p" x="0" y="290" xml:space="preserve">  2</tspan><tspan class="g" x="23.67" y="290">- Ma</tspan><tspan class="j" x="72.6" y="290">k</tspan><tspan class="g" x="83.41" y="290">e glider guns- cell combi</tspan><tspan class="h" x="338.2" y="290">	</tspan></tspan><tspan class="b"><tspan class="s" x="0" y="318.8">	</tspan><tspan class="t" x="36" y="318.8" xml:space="preserve"> nation which mo</tspan><tspan class="r" x="214.3" y="318.8">v</tspan><tspan class="t" x="225.34" y="318.8">es</tspan><tspan class="q" x="247.42" y="318.8"> </tspan></tspan><tspan/></text></svg>