<svg width="1280" height="720" xmlns="http://www.w3.org/2000/svg" xmlns:xlink="http://www.w3.org/1999/xlink" overflow="hidden"><defs><clipPath id="clip0"><rect x="0" y="0" width="1280" height="720"/></clipPath><clipPath id="clip1"><rect x="166" y="56" width="1080" height="608"/></clipPath><clipPath id="clip2"><rect x="166" y="56" width="1080" height="608"/></clipPath><clipPath id="clip3"><rect x="166" y="56" width="1080" height="608"/></clipPath><linearGradient x1="537.711" y1="605.857" x2="537.711" y2="-1.6425" gradientUnits="userSpaceOnUse" spreadMethod="pad" id="fill4"><stop offset="0"/><stop offset="0.85" stop-color="#3F006E"/><stop offset="1" stop-color="#3F006E"/></linearGradient><linearGradient x1="96.21" y1="601.622" x2="96.21" y2="436.151" gradientUnits="userSpaceOnUse" spreadMethod="pad" id="fill5"><stop offset="0"/><stop offset="0.85" stop-color="#3F006E"/><stop offset="1" stop-color="#3F006E"/></linearGradient><linearGradient x1="207.844" y1="583.048" x2="207.844" y2="526.646" gradientUnits="userSpaceOnUse" spreadMethod="pad" id="fill6"><stop offset="0"/><stop offset="0.85" stop-color="#3F006E"/><stop offset="1" stop-color="#3F006E"/></linearGradient><linearGradient x1="784.013" y1="593.59" x2="783.567" y2="587.221" gradientUnits="userSpaceOnUse" spreadMethod="pad" id="fill7"><stop offset="0" stop-color="#176E7E"/><stop offset="0.85" stop-color="#721D68"/><stop offset="1" stop-color="#721D68"/></linearGradient><linearGradient x1="783.375" y1="532.921" x2="783.051" y2="528.309" gradientUnits="userSpaceOnUse" spreadMethod="pad" id="fill8"><stop offset="0" stop-color="#176E7E"/><stop offset="0.85" stop-color="#721D68"/><stop offset="1" stop-color="#721D68"/></linearGradient><linearGradient x1="830.1" y1="479.545" x2="830.025" y2="478.473" gradientUnits="userSpaceOnUse" spreadMethod="pad" id="fill9"><stop offset="0" stop-color="#176E7E"/><stop offset="0.85" stop-color="#721D68"/><stop offset="1" stop-color="#721D68"/></linearGradient><linearGradient x1="902.996" y1="466.794" x2="902.831" y2="464.443" gradientUnits="userSpaceOnUse" spreadMethod="pad" id="fill10"><stop offset="0" stop-color="#176E7E"/><stop offset="0.85" stop-color="#721D68"/><stop offset="1" stop-color="#721D68"/></linearGradient><linearGradient x1="948.684" y1="649.824" x2="935.692" y2="464.502" gradientUnits="userSpaceOnUse" spreadMethod="pad" id="fill11"><stop offset="0" stop-color="#176E7E"/><stop offset="0.85" stop-color="#721D68"/><stop offset="1" stop-color="#721D68"/></linearGradient><linearGradient x1="1080.28" y1="526.103" x2="1079.98" y2="521.816" gradientUnits="userSpaceOnUse" spreadMethod="pad" id="fill12"><stop offset="0" stop-color="#176E7E"/><stop offset="0.85" stop-color="#721D68"/><stop offset="1" stop-color="#721D68"/></linearGradient><linearGradient x1="1017.53" y1="484.642" x2="1017.5" y2="484.148" gradientUnits="userSpaceOnUse" spreadMethod="pad" id="fill13"><stop offset="0" stop-color="#176E7E"/><stop offset="0.85" stop-color="#721D68"/><stop offset="1" stop-color="#721D68"/></linearGradient><linearGradient x1="943.172" y1="599.13" x2="943.172" y2="592.397" gradientUnits="userSpaceOnUse" spreadMethod="pad" id="fill14"><stop offset="0" stop-color="#010036"/><stop offset="0.08" stop-color="#010036"/><stop offset="1" stop-color="#008978"/></linearGradient><linearGradient x1="943.74" y1="538.521" x2="943.74" y2="533.43" gradientUnits="userSpaceOnUse" spreadMethod="pad" id="fill15"><stop offset="0" stop-color="#010036"/><stop offset="0.08" stop-color="#010036"/><stop offset="1" stop-color="#008978"/></linearGradient><linearGradient x1="896.895" y1="485.145" x2="896.895" y2="483.598" gradientUnits="userSpaceOnUse" spreadMethod="pad" id="fill16"><stop offset="0" stop-color="#010036"/><stop offset="0.08" stop-color="#010036"/><stop offset="1" stop-color="#008978"/></linearGradient><linearGradient x1="824.04" y1="471.983" x2="824.04" y2="469.986" gradientUnits="userSpaceOnUse" spreadMethod="pad" id="fill17"><stop offset="0" stop-color="#010036"/><stop offset="0.08" stop-color="#010036"/><stop offset="1" stop-color="#008978"/></linearGradient><linearGradient x1="622.581" y1="598.258" x2="622.581" y2="591.103" gradientUnits="userSpaceOnUse" spreadMethod="pad" id="fill18"><stop offset="0" stop-color="#010036"/><stop offset="0.08" stop-color="#010036"/><stop offset="1" stop-color="#008978"/></linearGradient><linearGradient x1="782.724" y1="645.953" x2="782.724" y2="471.983" gradientUnits="userSpaceOnUse" spreadMethod="pad" id="fill19"><stop offset="0" stop-color="#010036"/><stop offset="0.08" stop-color="#010036"/><stop offset="1" stop-color="#008978"/></linearGradient><linearGradient x1="646.83" y1="531.298" x2="646.83" y2="527.383" gradientUnits="userSpaceOnUse" spreadMethod="pad" id="fill20"><stop offset="0" stop-color="#010036"/><stop offset="0.08" stop-color="#010036"/><stop offset="1" stop-color="#008978"/></linearGradient><linearGradient x1="41.0794" y1="423.979" x2="41.0794" y2="421.408" gradientUnits="userSpaceOnUse" spreadMethod="pad" id="fill21"><stop offset="0" stop-color="#010036"/><stop offset="0.08" stop-color="#010036"/><stop offset="1" stop-color="#008978"/></linearGradient><linearGradient x1="55.53" y1="389.953" x2="55.53" y2="388.721" gradientUnits="userSpaceOnUse" spreadMethod="pad" id="fill22"><stop offset="0" stop-color="#010036"/><stop offset="0.08" stop-color="#010036"/><stop offset="1" stop-color="#008978"/></linearGradient><linearGradient x1="94.2975" y1="372.634" x2="94.2975" y2="371.852" gradientUnits="userSpaceOnUse" spreadMethod="pad" id="fill23"><stop offset="0" stop-color="#010036"/><stop offset="0.08" stop-color="#010036"/><stop offset="1" stop-color="#008978"/></linearGradient><linearGradient x1="138.077" y1="383.996" x2="138.077" y2="381.594" gradientUnits="userSpaceOnUse" spreadMethod="pad" id="fill24"><stop offset="0" stop-color="#010036"/><stop offset="0.08" stop-color="#010036"/><stop offset="1" stop-color="#008978"/></linearGradient><linearGradient x1="193.123" y1="528.806" x2="193.123" y2="523.89" gradientUnits="userSpaceOnUse" spreadMethod="pad" id="fill25"><stop offset="0" stop-color="#010036"/><stop offset="0.08" stop-color="#010036"/><stop offset="1" stop-color="#008978"/></linearGradient><linearGradient x1="219.443" y1="503.764" x2="219.443" y2="498.774" gradientUnits="userSpaceOnUse" spreadMethod="pad" id="fill26"><stop offset="0" stop-color="#010036"/><stop offset="0.08" stop-color="#010036"/><stop offset="1" stop-color="#008978"/></linearGradient><linearGradient x1="132.131" y1="523.89" x2="132.131" y2="372.634" gradientUnits="userSpaceOnUse" spreadMethod="pad" id="fill27"><stop offset="0" stop-color="#010036"/><stop offset="0.08" stop-color="#010036"/><stop offset="1" stop-color="#008978"/></linearGradient><linearGradient x1="222.114" y1="460.761" x2="222.114" y2="457.206" gradientUnits="userSpaceOnUse" spreadMethod="pad" id="fill28"><stop offset="0" stop-color="#010036"/><stop offset="0.08" stop-color="#010036"/><stop offset="1" stop-color="#008978"/></linearGradient><linearGradient x1="197.1" y1="422.258" x2="197.1" y2="420.818" gradientUnits="userSpaceOnUse" spreadMethod="pad" id="fill29"><stop offset="0" stop-color="#010036"/><stop offset="0.08" stop-color="#010036"/><stop offset="1" stop-color="#008978"/></linearGradient><linearGradient x1="538.807" y1="217.316" x2="538.807" y2="-8.42625" gradientUnits="userSpaceOnUse" spreadMethod="pad" id="fill30"><stop offset="0" stop-color="#44B2FF"/><stop offset="0.09" stop-color="#44B2FF"/><stop offset="0.8" stop-color="#004069"/><stop offset="1" stop-color="#004069"/></linearGradient><linearGradient x1="547.138" y1="351.636" x2="547.138" y2="222.412" gradientUnits="userSpaceOnUse" spreadMethod="pad" id="fill31"><stop offset="0" stop-color="#002E47"/><stop offset="0.15" stop-color="#002E47"/><stop offset="0.84" stop-color="#60007A"/><stop offset="1" stop-color="#60007A"/></linearGradient><linearGradient x1="522.276" y1="290.081" x2="574.144" y2="290.081" gradientUnits="userSpaceOnUse" spreadMethod="pad" id="fill32"><stop offset="0" stop-color="#113E45"/><stop offset="0.05" stop-color="#113E45"/><stop offset="1" stop-color="#20002D"/></linearGradient><linearGradient x1="545.288" y1="342.906" x2="545.288" y2="241.802" gradientUnits="userSpaceOnUse" spreadMethod="pad" id="fill33"><stop offset="0" stop-color="#009593"/><stop offset="0.36" stop-color="#252F6D"/><stop offset="1"/></linearGradient></defs><g clip-path="url(#clip0)"><rect x="0" y="0" width="1280" height="720" fill="#1A1A1A"/><g clip-path="url(#clip1)"><g clip-path="url(#clip2)"><g clip-path="url(#clip3)"><path d="M-2.28938-1.6425 1077.71-1.6425 1077.71 605.857-2.28934 605.857Z" stroke="#000000" stroke-width="0.5625" stroke-miterlimit="10" fill="url(#fill4)" transform="matrix(1 0 0 1.00082 166 56)"/><path d="M18.7087 569.857C-5.985 526.674 53.5387 431.1 107.207 436.359 153.382 440.882 197.82 520.296 171.709 566.111 143.449 615.69 41.6475 609.975 18.7087 569.863Z" fill="url(#fill5)" transform="matrix(1 0 0 1.00082 166 56)"/><path d="M181.429 572.22C173.014 557.499 193.303 524.925 211.596 526.719 227.334 528.261 242.482 555.328 233.578 570.943 223.948 587.841 189.247 585.894 181.429 572.22Z" fill="url(#fill6)" transform="matrix(1 0 0 1.00082 166 56)"/><path d="M195.829 201.234C195.829 209.007 189.528 215.308 181.755 215.308 173.982 215.308 167.681 209.007 167.681 201.234 167.681 193.462 173.982 187.161 181.755 187.161 189.528 187.161 195.829 193.462 195.829 201.234Z" fill="#882264" transform="matrix(1 0 0 1.00082 166 56)"/><path d="M805.927 254.329C805.927 262.101 799.627 268.402 791.854 268.402 784.081 268.402 777.78 262.101 777.78 254.329 777.78 246.556 784.081 240.255 791.854 240.255 799.626 240.255 805.927 246.556 805.927 254.329Z" fill="#882264" transform="matrix(1 0 0 1.00082 166 56)"/><path d="M93.1612 261.366C93.1612 269.138 86.8602 275.439 79.0875 275.439 71.3148 275.439 65.0137 269.138 65.0137 261.366 65.0137 253.593 71.3148 247.292 79.0875 247.292 86.8602 247.292 93.1612 253.593 93.1612 261.366Z" fill="#882264" transform="matrix(1 0 0 1.00082 166 56)"/><path d="M912.521 205.695C912.521 209.581 909.371 212.732 905.484 212.732 901.598 212.732 898.448 209.581 898.448 205.695 898.448 201.809 901.598 198.658 905.484 198.658 909.371 198.658 912.521 201.809 912.521 205.695Z" fill="#882264" transform="matrix(1 0 0 1.00082 166 56)"/><path d="M859.331 303.75C859.331 307.636 856.181 310.787 852.294 310.787 848.408 310.787 845.257 307.636 845.257 303.75 845.257 299.864 848.408 296.713 852.294 296.713 856.181 296.713 859.331 299.864 859.331 303.75Z" fill="#882264" transform="matrix(1 0 0 1.00082 166 56)"/><path d="M399.336 212.732C399.336 216.618 396.185 219.769 392.299 219.769 388.412 219.769 385.262 216.618 385.262 212.732 385.262 208.846 388.412 205.695 392.299 205.695 396.185 205.695 399.336 208.846 399.336 212.732Z" fill="#882264" transform="matrix(1 0 0 1.00082 166 56)"/><path d="M497.363 261.366C497.363 265.252 494.212 268.402 490.326 268.402 486.439 268.402 483.289 265.252 483.289 261.366 483.289 257.479 486.439 254.329 490.326 254.329 494.212 254.329 497.363 257.479 497.363 261.366Z" fill="#882264" transform="matrix(1 0 0 1.00082 166 56)"/><path d="M303.975 281.891C303.975 285.778 300.825 288.928 296.938 288.928 293.052 288.928 289.901 285.778 289.901 281.891 289.901 278.005 293.052 274.854 296.938 274.854 300.824 274.854 303.975 278.005 303.975 281.891Z" fill="#882264" transform="matrix(1 0 0 1.00082 166 56)"/><path d="M725.586 303.75C725.586 307.636 722.435 310.787 718.549 310.787 714.662 310.787 711.512 307.636 711.512 303.75 711.512 299.864 714.662 296.713 718.549 296.713 722.435 296.713 725.586 299.864 725.586 303.75Z" fill="#882264" transform="matrix(1 0 0 1.00082 166 56)"/><path d="M1046.27 300.69C1046.27 304.576 1043.12 307.727 1039.23 307.727 1035.34 307.727 1032.19 304.576 1032.19 300.69 1032.19 296.804 1035.34 293.653 1039.23 293.653 1043.12 293.653 1046.27 296.804 1046.27 300.69Z" fill="#882264" transform="matrix(1 0 0 1.00082 166 56)"/><path d="M411.407 294.12C411.407 301.893 405.106 308.194 397.333 308.194 389.56 308.194 383.259 301.893 383.259 294.12 383.259 286.347 389.56 280.046 397.333 280.046 405.106 280.046 411.407 286.347 411.407 294.12Z" fill="#882264" transform="matrix(1 0 0 1.00082 166 56)"/><path d="M970.959 294.12C970.959 301.893 964.658 308.194 956.886 308.194 949.113 308.194 942.812 301.893 942.812 294.12 942.812 286.347 949.113 280.046 956.886 280.046 964.658 280.046 970.959 286.347 970.959 294.12Z" fill="#882264" transform="matrix(1 0 0 1.00082 166 56)"/><path d="M91.1531 191.306C91.1531 195.193 88.0026 198.343 84.1163 198.343 80.2299 198.343 77.0794 195.193 77.0794 191.306 77.0794 187.42 80.2299 184.269 84.1163 184.269 88.0026 184.269 91.1531 187.42 91.1531 191.306Z" fill="#882264" transform="matrix(1 0 0 1.00082 166 56)"/><path d="M1019.34 210.887C1019.34 214.773 1016.19 217.924 1012.3 217.924 1008.42 217.924 1005.27 214.773 1005.27 210.887 1005.27 207.001 1008.42 203.85 1012.3 203.85 1016.19 203.85 1019.34 207.001 1019.34 210.887Z" fill="#882264" transform="matrix(1 0 0 1.00082 166 56)"/><path d="M200.863 273.594C200.863 277.481 197.713 280.631 193.826 280.631 189.94 280.631 186.789 277.481 186.789 273.594 186.789 269.708 189.94 266.557 193.826 266.557 197.713 266.557 200.863 269.708 200.863 273.594Z" fill="#882264" transform="matrix(1 0 0 1.00082 166 56)"/><path d="M265.776 244.356C265.776 248.242 262.625 251.393 258.739 251.393 254.852 251.393 251.702 248.242 251.702 244.356 251.702 240.469 254.852 237.319 258.739 237.319 262.625 237.319 265.776 240.469 265.776 244.356Z" fill="#882264" transform="matrix(1 0 0 1.00082 166 56)"/><path d="M673.605 237.313C673.605 241.199 670.454 244.35 666.568 244.35 662.682 244.35 659.531 241.199 659.531 237.313 659.531 233.427 662.682 230.276 666.568 230.276 670.454 230.276 673.605 233.427 673.605 237.313Z" fill="#882264" transform="matrix(1 0 0 1.00082 166 56)"/><path d="M481.281 191.306C481.281 195.193 478.13 198.343 474.244 198.343 470.357 198.343 467.207 195.193 467.207 191.306 467.207 187.42 470.357 184.269 474.244 184.269 478.13 184.269 481.281 187.42 481.281 191.306Z" fill="#882264" transform="matrix(1 0 0 1.00082 166 56)"/><path d="M781.38 593.826C782.949 591.581 784.524 589.331 786.122 587.092 784.339 589.146 782.741 591.379 781.38 593.826Z" fill="url(#fill7)" transform="matrix(1 0 0 1.00082 166 56)"/><path d="M786.42 528.126C784.125 529.577 781.948 531.259 779.946 533.216 782.094 531.518 784.249 529.813 786.42 528.126Z" fill="url(#fill8)" transform="matrix(1 0 0 1.00082 166 56)"/><path d="M833.349 478.294C831.116 478.575 828.9 479.076 826.712 479.841 828.917 479.323 831.128 478.8 833.349 478.294Z" fill="url(#fill9)" transform="matrix(1 0 0 1.00082 166 56)"/><path d="M905.501 466.678C903.847 465.846 902.109 465.171 900.264 464.681 902.008 465.339 903.758 466.003 905.501 466.678Z" fill="url(#fill10)" transform="matrix(1 0 0 1.00082 166 56)"/><path d="M1013.88 553.297C1028.71 554.647 1043.42 557.167 1057.85 560.829 1074.62 565.087 1092.45 572.186 1102.28 585.804 1093.81 571.275 1084.61 557.01 1071.67 546.401 1054.69 532.479 1032.2 526.033 1010.26 526.871 1008.03 526.956 1005.8 527.119 1003.58 527.344 1013.93 523.811 1024.52 521.004 1035.25 518.946 1049.31 516.257 1065.16 515.323 1077.3 522.084 1065.86 514.164 1053.96 506.7 1040.54 503.286 1022.93 498.808 1003.82 501.857 987.671 510.182 977.181 515.587 967.911 523.114 960.036 531.928 961.431 529.335 963.129 526.888 964.867 524.509 970.836 516.353 977.445 508.669 984.622 501.553 992.964 493.279 1003.33 485.381 1014.69 484.419 1003.27 484.273 991.749 484.639 981.051 488.464 969.525 492.581 959.636 500.625 952.492 510.598 949.286 500.034 943.459 490.275 935.218 482.968 926.713 475.431 916.161 470.796 905.513 466.678 915.699 471.808 922.371 482.996 927.028 493.779 931.033 503.055 934.307 512.651 936.804 522.444 937.53 525.296 938.194 528.204 938.52 531.129 934.492 520.014 928.699 509.574 920.981 500.647 909.096 486.906 892.496 476.955 874.491 474.548 860.76 472.714 846.934 475.206 833.361 478.294 847.148 476.544 861.519 483.311 873.568 491.051 882.765 496.957 891.54 503.511 899.82 510.643 897.846 509.608 895.837 508.629 893.801 507.718 873.754 498.763 850.483 496.367 829.536 502.959 813.566 507.983 799.706 517.798 786.426 528.126 800.623 519.148 819.821 519.199 836.977 521.499 851.732 523.479 866.323 526.624 880.583 530.893 887.878 533.081 895.236 535.635 901.266 540.287 901.547 540.501 901.811 540.731 902.081 540.956 895.899 538.999 889.566 537.553 883.119 536.721 861.345 533.902 838.367 538.284 820.193 550.609 806.338 560.003 795.876 573.384 786.122 587.092 797.141 574.414 815.546 568.952 832.646 566.235 847.344 563.895 862.228 562.719 877.112 562.714 884.728 562.714 892.508 563.051 899.623 565.774 905.141 567.883 910.024 571.337 914.839 574.757 921.347 579.375 957.814 583.138 965.751 581.237 971.494 579.859 977.31 578.475 983.216 578.571 990.833 578.694 998.179 581.282 1005.24 584.122 1019.05 589.669 1032.43 596.312 1045.2 603.956 1060.05 612.855 1075.09 624.774 1080.6 640.648 1076.65 624.296 1071.93 607.978 1062.58 594.096 1050.31 575.888 1030.62 563.254 1009.36 557.758 1003.06 556.127 996.621 555.103 990.141 554.619 990.489 554.513 990.838 554.406 991.187 554.304 998.516 552.24 1006.3 552.606 1013.88 553.297Z" fill="url(#fill11)" transform="matrix(1 0 0 1.00082 166 56)"/><path d="M1077.29 522.079C1079.17 523.378 1081.04 524.683 1082.89 525.994 1081.14 524.469 1079.26 523.176 1077.29 522.079Z" fill="url(#fill12)" transform="matrix(1 0 0 1.00082 166 56)"/><path d="M1014.68 484.414C1016.56 484.436 1018.42 484.476 1020.28 484.515 1018.4 484.279 1016.53 484.256 1014.68 484.414Z" fill="url(#fill13)" transform="matrix(1 0 0 1.00082 166 56)"/><path d="M945.546 599.13C943.976 596.886 942.401 594.636 940.804 592.397 942.587 594.45 944.184 596.683 945.546 599.13Z" fill="url(#fill14)" transform="matrix(1 0 0 1.00082 166 56)"/><path d="M940.506 533.43C942.801 534.881 944.977 536.563 946.98 538.521 944.831 536.822 942.677 535.117 940.506 533.43Z" fill="url(#fill15)" transform="matrix(1 0 0 1.00082 166 56)"/><path d="M893.576 483.598C895.809 483.879 898.026 484.38 900.214 485.145 898.009 484.628 895.798 484.104 893.576 483.598Z" fill="url(#fill16)" transform="matrix(1 0 0 1.00082 166 56)"/><path d="M821.419 471.983C823.073 471.15 824.811 470.475 826.656 469.986 824.912 470.644 823.163 471.307 821.419 471.983Z" fill="url(#fill17)" transform="matrix(1 0 0 1.00082 166 56)"/><path d="M624.645 591.103C623.256 593.482 621.883 595.873 620.522 598.253 621.658 595.682 623.047 593.308 624.645 591.103Z" fill="url(#fill18)" transform="matrix(1 0 0 1.00082 166 56)"/><path d="M713.042 558.602C698.22 559.952 683.505 562.472 669.077 566.134 652.303 570.392 634.477 577.491 624.645 591.109 633.116 576.579 642.319 562.314 655.256 551.706 672.238 537.784 694.721 531.337 716.664 532.176 718.898 532.26 721.125 532.423 723.341 532.648 712.997 529.116 702.411 526.309 691.678 524.25 677.616 521.561 661.764 520.628 649.626 527.389 661.067 519.469 672.969 512.004 686.385 508.59 703.991 504.113 723.105 507.161 739.254 515.486 749.745 520.892 759.015 528.418 766.89 537.232 765.495 534.639 763.796 532.193 762.058 529.813 756.09 521.657 749.481 513.973 742.303 506.858 733.961 498.583 723.594 490.686 712.237 489.724 723.656 489.577 735.176 489.943 745.875 493.768 757.401 497.886 767.289 505.929 774.433 515.902 777.639 505.339 783.467 495.579 791.708 488.272 800.212 480.735 810.765 476.1 821.413 471.983 811.226 477.113 804.555 488.301 799.898 499.084 795.893 508.359 792.619 517.956 790.121 527.749 789.396 530.601 788.732 533.509 788.406 536.434 792.433 525.319 798.227 514.879 805.944 505.952 817.83 492.21 834.429 482.259 852.435 479.852 866.166 478.018 879.992 480.51 893.565 483.598 879.778 481.849 865.406 488.616 853.357 496.356 844.161 502.262 835.386 508.815 827.106 515.948 829.08 514.913 831.088 513.934 833.124 513.022 853.172 504.068 876.443 501.671 897.39 508.264 913.359 513.287 927.219 523.103 940.5 533.43 926.302 524.453 907.104 524.503 889.948 526.804 875.194 528.784 860.602 531.928 846.343 536.198 839.047 538.386 831.69 540.939 825.66 545.591 825.379 545.805 825.114 546.036 824.844 546.261 831.026 544.303 837.36 542.857 843.806 542.025 865.581 539.207 888.559 543.589 906.733 555.913 920.587 565.307 931.05 578.689 940.804 592.397 929.784 579.718 911.379 574.256 894.279 571.539 879.581 569.199 864.698 568.024 849.814 568.018 842.198 568.018 834.418 568.356 827.302 571.078 821.784 573.188 816.902 576.641 812.087 580.061 805.579 584.679 769.112 588.443 761.175 586.541 755.432 585.163 749.616 583.779 743.709 583.875 736.093 583.999 728.747 586.586 721.682 589.427 707.872 594.973 694.496 601.616 681.727 609.261 666.878 618.159 651.836 630.079 646.329 645.953 650.273 629.601 654.992 613.283 664.346 599.4 676.614 581.192 696.302 568.558 717.564 563.062 723.87 561.431 730.305 560.408 736.785 559.924 736.436 559.817 736.087 559.71 735.739 559.609 728.409 557.544 720.63 557.91 713.042 558.602Z" fill="url(#fill19)" transform="matrix(1 0 0 1.00082 166 56)"/><path d="M649.626 527.383C647.753 528.682 645.885 529.987 644.029 531.298 645.778 529.774 647.657 528.48 649.626 527.383Z" fill="url(#fill20)" transform="matrix(1 0 0 1.00082 166 56)"/><path d="M712.243 489.718C710.37 489.741 708.503 489.78 706.641 489.819 708.531 489.583 710.398 489.561 712.243 489.718Z" transform="matrix(1 0 0 1.00082 166 56)"/><path d="M689.496 577.446C688.506 578.768 687.634 580.196 686.919 581.737 687.774 580.309 688.629 578.874 689.496 577.446Z" fill="#50004C" transform="matrix(1 0 0 1.00082 166 56)"/><path d="M705.381 538.982C704.177 539.623 703.024 540.388 701.944 541.294 703.086 540.523 704.227 539.747 705.381 538.982Z" fill="#50004C" transform="matrix(1 0 0 1.00082 166 56)"/><path d="M743.861 516.769C742.742 516.656 741.606 516.645 740.453 516.769 741.583 516.769 742.719 516.769 743.861 516.769Z" fill="#50004C" transform="matrix(1 0 0 1.00082 166 56)"/><path d="M880.976 577.721C881.921 579.099 882.855 580.489 883.783 581.867 882.984 580.365 882.039 578.987 880.976 577.721Z" fill="#50004C" transform="matrix(1 0 0 1.00082 166 56)"/><path d="M881.432 541.867C882.737 542.919 884.031 543.982 885.319 545.04 884.121 543.825 882.816 542.779 881.432 541.867Z" fill="#50004C" transform="matrix(1 0 0 1.00082 166 56)"/><path d="M824.175 542.531C832.888 540.09 841.792 538.341 850.781 537.294 861.232 536.085 872.899 536.259 881.426 541.867 873.472 535.444 865.153 529.329 855.506 526.106 842.844 521.871 828.675 523.074 816.39 528.294 815.141 528.829 813.909 529.397 812.7 530.01 817.813 525.763 823.219 521.876 828.872 518.389 836.28 513.816 845.083 509.861 853.442 511.071 845.229 509.046 836.854 507.381 828.489 508.342 817.515 509.608 807.317 515.475 799.943 523.699 795.15 529.037 791.516 535.32 788.946 542.036 789.176 540.264 789.609 538.504 790.087 536.777 791.713 530.854 793.806 525.054 796.342 519.458 799.29 512.949 803.469 506.222 809.719 503.218 803.199 505.603 796.736 508.309 791.482 512.797 785.824 517.629 781.948 524.34 780.047 531.551 775.935 526.241 770.518 521.955 764.252 519.592 757.789 517.151 750.791 516.802 743.85 516.763 750.746 517.472 756.962 522.383 761.94 527.507 766.221 531.911 770.158 536.653 773.696 541.676 774.726 543.139 775.732 544.646 776.554 546.238 771.862 540.793 766.311 536.119 759.994 532.716 750.268 527.479 738.681 525.414 727.931 527.946 719.736 529.875 712.417 534.285 705.375 538.971 712.828 534.994 722.458 535.731 730.98 537.519 737.482 538.886 743.889 540.709 750.133 542.97 748.789 542.807 747.433 542.689 746.078 542.61 732.746 541.862 719.01 545.535 708.536 553.809 700.549 560.121 694.8 568.693 689.49 577.434 695.616 569.261 706.534 565.138 716.777 562.731 725.586 560.661 734.557 559.294 743.586 558.636 748.204 558.298 752.934 558.163 757.372 559.496 757.575 559.558 757.778 559.631 757.98 559.699 754.042 559.924 750.133 560.475 746.291 561.397 733.309 564.508 721.204 571.973 713.542 582.902 707.704 591.238 704.655 601.104 702.079 610.999 705.6 601.408 714.87 594.326 723.999 589.084 731.846 584.573 740.047 580.686 748.502 577.462 752.828 575.814 757.322 574.324 761.951 574.329 765.54 574.329 769.061 575.241 772.538 576.141 777.234 577.356 798.767 571.601 802.862 568.806 805.826 566.781 808.83 564.733 812.211 563.513 816.564 561.938 821.301 561.814 825.93 561.898 834.975 562.061 844.014 562.939 852.919 564.525 863.28 566.364 874.406 569.886 880.971 577.716 875.194 569.278 868.978 561.032 860.659 555.165 849.746 547.476 835.83 544.556 822.561 546.036 818.623 546.474 814.747 547.284 810.962 548.409 811.136 548.274 811.311 548.139 811.491 548.004 815.209 545.242 819.709 543.769 824.169 542.52Z" fill="#50004C" transform="matrix(1 0 0 1.00082 166 56)"/><path d="M853.453 511.071C854.797 511.402 856.142 511.74 857.481 512.083 856.153 511.594 854.809 511.267 853.453 511.071Z" fill="#50004C" transform="matrix(1 0 0 1.00082 166 56)"/><path d="M809.724 503.224C810.793 502.83 811.862 502.448 812.931 502.071 811.806 502.346 810.737 502.74 809.724 503.224Z" fill="#50004C" transform="matrix(1 0 0 1.00082 166 56)"/><path d="M38.9306 423.979C40.3537 423.118 41.7881 422.258 43.2281 421.408 41.7319 422.106 40.2919 422.955 38.9306 423.979Z" fill="url(#fill21)" transform="matrix(1 0 0 1.00082 166 56)"/><path d="M57.9544 388.721C56.3175 388.963 54.6975 389.357 53.1 389.948 54.7144 389.537 56.3288 389.121 57.9544 388.721Z" fill="url(#fill22)" transform="matrix(1 0 0 1.00082 166 56)"/><path d="M96.3337 372.634C95.0231 372.24 93.6675 371.97 92.2669 371.852 93.6225 372.105 94.9781 372.364 96.3337 372.634Z" fill="url(#fill23)" transform="matrix(1 0 0 1.00082 166 56)"/><path d="M139.286 383.996C138.572 383.124 137.773 382.32 136.868 381.594 137.672 382.387 138.482 383.192 139.286 383.996Z" fill="url(#fill24)" transform="matrix(1 0 0 1.00082 166 56)"/><path d="M193.584 523.89C193.281 525.533 192.966 527.175 192.656 528.812 193.151 527.181 193.449 525.538 193.584 523.89Z" fill="url(#fill25)" transform="matrix(1 0 0 1.00082 166 56)"/><path d="M219.184 498.774C219.369 500.439 219.538 502.104 219.707 503.764 219.707 502.059 219.521 500.394 219.184 498.774Z" fill="url(#fill26)" transform="matrix(1 0 0 1.00082 166 56)"/><path d="M178.104 458.887C186.007 463.298 193.556 468.332 200.666 473.929 208.935 480.437 217.086 488.784 219.184 498.774 218.064 488.61 216.478 478.412 211.911 469.322 205.914 457.397 195.019 448.256 182.621 443.306 181.361 442.8 180.084 442.344 178.796 441.917 185.411 442.508 191.993 443.565 198.461 445.073 206.938 447.052 215.972 450.45 221.051 457.2 216.652 449.978 211.882 442.89 205.273 437.681 196.599 430.847 185.226 427.821 174.201 428.451 167.04 428.861 160.031 430.757 153.478 433.704 154.89 432.608 156.443 431.668 157.995 430.774 163.322 427.714 168.896 425.081 174.639 422.899 181.316 420.362 189.023 418.534 195.576 420.806 189.27 417.904 182.779 415.266 175.888 414.748 168.469 414.191 160.988 416.216 154.558 419.991 155.385 413.331 154.558 406.468 151.785 400.376 148.922 394.087 144.202 388.907 139.303 383.991 143.696 389.357 144.641 397.221 144.562 404.364 144.495 410.507 143.944 416.644 142.914 422.702 142.616 424.468 142.262 426.246 141.722 427.95 142.228 420.784 141.592 413.55 139.506 406.688 136.294 396.118 129.533 386.488 120.122 380.706 112.95 376.296 104.647 374.265 96.345 372.628 104.439 375.058 110.745 382.371 115.532 389.649 119.183 395.201 122.439 401.012 125.28 407.019 124.442 405.956 123.564 404.916 122.659 403.909 113.732 393.981 101.396 386.904 88.1325 385.391 78.0187 384.238 67.8994 386.263 57.9712 388.727 68.0794 387.242 78.7275 392.017 87.6881 397.53 95.3944 402.272 102.724 407.627 109.592 413.516 113.107 416.531 116.561 419.771 118.761 423.844 118.862 424.029 118.952 424.226 119.048 424.418 116.1 421.802 112.933 419.439 109.558 417.381 98.1562 410.434 84.3075 407.199 71.1731 409.556 61.155 411.356 52.0425 416.205 43.2394 421.408 52.4925 417.088 64.0687 418.601 74.2331 421.312 82.9744 423.641 91.5356 426.662 99.8044 430.341 104.034 432.219 108.276 434.329 111.555 437.603 114.097 440.139 115.959 443.261 117.787 446.349 120.263 450.523 139.59 461.621 144.473 462.521 148.005 463.174 151.577 463.843 154.834 465.356 159.036 467.308 162.478 470.559 165.701 473.878 172.001 480.369 177.795 487.361 182.998 494.764 189.051 503.376 194.462 513.714 193.601 523.89 195.452 513.833 196.858 503.601 195.086 493.582 192.769 480.437 184.95 468.557 174.499 460.249 171.399 457.785 168.081 455.625 164.599 453.758 164.818 453.78 165.037 453.808 165.257 453.842 169.841 454.506 174.071 456.632 178.116 458.887Z" fill="url(#fill27)" transform="matrix(1 0 0 1.00082 166 56)"/><path d="M221.04 457.206C221.76 458.392 222.474 459.579 223.183 460.761 222.587 459.478 221.867 458.302 221.04 457.206Z" fill="url(#fill28)" transform="matrix(1 0 0 1.00082 166 56)"/><path d="M195.559 420.818C196.594 421.296 197.623 421.774 198.647 422.258 197.657 421.661 196.622 421.189 195.559 420.818Z" fill="url(#fill29)" transform="matrix(1 0 0 1.00082 166 56)"/><path d="M-6.45188 136.665C15.4744 124.791 40.3875 110.059 82.5187 112.539 131.282 115.414 144.382 138.69 216.945 161.657 269.696 178.352 304.971 189.518 348.784 181.474 400.607 171.962 409.011 145.744 471.144 136.665 508.236 131.243 537.924 135.81 553.866 138.386 593.033 144.72 624.167 158.49 684.844 185.783 737.989 209.683 741.769 214.976 762.396 216.804 812.773 221.265 854.342 195.362 857.182 193.539 886.663 174.639 883.755 160.909 909.748 150.452 936.321 139.764 962.359 144.866 986.439 149.591 1017.04 155.593 1027.1 164.739 1067.44 171.996 1081.21 174.471 1080.84 175.674 1088.37 176.304 1087.51 110.812 1086.65 60.5138 1085.78-4.97813 712.963-6.12563 362.07-7.27875-10.7606-8.42625-9.32625 45-7.88625 83.2387-6.45188 136.665Z" stroke="#000000" stroke-width="0.5625" stroke-miterlimit="10" fill="url(#fill30)" transform="matrix(1 0 0 1.00082 166 56)"/><path d="M572.496 305.82 556.138 305.82 556.138 197.842C556.138 190.311 550.035 184.208 542.503 184.208L538.217 184.208C529.521 184.208 522.473 191.256 522.473 199.952L522.473 305.814 522.473 305.814C518.524 305.814 515.329 309.015 515.329 312.958L515.329 612.624 578.571 612.624 578.571 311.895C578.571 308.537 575.848 305.82 572.496 305.82L572.496 305.82Z" stroke="#62336E" stroke-width="2.8125" stroke-miterlimit="10" fill="#0F0002" transform="matrix(1 0 0 1.00082 166 56)"/><path d="M584.758 253.682 572.023 345.42C572.023 348.834 567.816 351.63 562.669 351.63L530.623 351.63C525.476 351.63 521.269 348.834 521.269 345.42L509.524 253.682C509.524 252.804 510.317 251.213 510.396 251.162 510.733 250.937 536.344 230.366 544.337 223.898 546.868 221.844 551.633 221.934 553.995 224.072L581.546 249.013 583.976 251.213C584.477 251.966 584.758 252.804 584.758 253.682Z" fill="url(#fill31)" transform="matrix(1 0 0 1.00082 166 56)"/><path d="M574.144 262.823 565.363 337.826C565.363 340.622 562.461 342.906 558.917 342.906L536.828 342.906C533.278 342.906 530.381 340.622 530.381 337.826L522.281 262.823C522.281 262.103 522.827 260.803 522.883 260.764 523.114 260.578 540.771 243.765 546.283 238.472 548.027 236.796 551.312 236.869 552.943 238.618L571.939 259.009 573.615 260.809C573.958 261.427 574.155 262.114 574.155 262.828Z" fill="url(#fill32)" transform="matrix(1 0 0 1.00082 166 56)"/><path d="M570.229 266.271 561.786 338.046C561.786 340.717 558.996 342.906 555.587 342.906L534.341 342.906C530.932 342.906 528.143 340.717 528.143 338.046L520.357 266.271C520.357 265.584 520.886 264.341 520.937 264.296 521.156 264.116 538.138 248.029 543.437 242.966 545.119 241.363 548.274 241.431 549.838 243.101L568.103 262.614 569.717 264.336C570.049 264.926 570.234 265.584 570.234 266.265Z" fill="url(#fill33)" transform="matrix(1 0 0 1.00082 166 56)"/><path d="M574.402 275.799C576.704 275.799 578.571 277.665 578.571 279.967L578.571 283.179C578.571 285.481 576.704 287.348 574.402 287.348L519.874 287.348C517.572 287.348 515.706 285.481 515.706 283.179L515.706 279.967C515.706 277.665 517.572 275.799 519.874 275.799Z" fill="#3D0069" transform="matrix(1 0 0 1.00082 166 56)"/><path d="M572.704 302.108C574.186 302.108 575.387 303.309 575.387 304.791L575.387 306.855C575.387 308.337 574.186 309.538 572.704 309.538L521.573 309.538C520.091 309.538 518.889 308.337 518.889 306.855L518.889 304.791C518.889 303.309 520.091 302.108 521.573 302.108Z" fill="#2A2668" transform="matrix(1 0 0 1.00082 166 56)"/><path d="M546.992 228.499C544.331 225.866 513.506 250.515 515.413 253.71 516.285 255.173 524.031 252.118 528.148 249.997 541.103 243.315 548.617 230.113 546.986 228.504Z" fill="#0095DA" transform="matrix(1 0 0 1.00082 166 56)"/><path d="M571.939 325.626C570.864 325.558 568.749 331.2 567.956 336.313 567.416 339.834 567.208 345.009 568.221 345.088 569.295 345.167 571.708 339.553 572.467 334.08 572.968 330.457 572.912 325.688 571.939 325.626Z" fill="#0095DA" transform="matrix(1 0 0 1.00082 166 56)"/><path d="M547.138 192.291 547.138 252.422" stroke="#1B1464" stroke-width="3.375" stroke-linecap="round" stroke-miterlimit="10" fill="none" transform="matrix(1 0 0 1.00082 166 56)"/><path d="M555.261 168.503C561.51 192.139 532.732 226.794 524.346 215.758 519.435 209.289 529.971 206.376 525.279 192.611 522.433 184.26 520.464 176.226 519.373 168.508 518.175 160.003 528.474 150.503 537.317 150.564 546.396 150.632 553.224 160.813 555.261 168.508Z" transform="matrix(1 0 0 1.00082 166 56)"/></g></g></g></g></svg>