<svg width="1280" height="720" xmlns="http://www.w3.org/2000/svg" xmlns:xlink="http://www.w3.org/1999/xlink" overflow="hidden"><defs><clipPath id="clip0"><rect x="0" y="0" width="1280" height="720"/></clipPath><clipPath id="clip1"><rect x="172" y="58" width="1074" height="604"/></clipPath><clipPath id="clip2"><rect x="172" y="58" width="1075" height="604"/></clipPath><clipPath id="clip3"><rect x="172" y="58" width="1075" height="604"/></clipPath></defs><g clip-path="url(#clip0)"><rect x="0" y="0" width="1280" height="720" fill="#1A1A1A"/><g clip-path="url(#clip1)"><g clip-path="url(#clip2)"><g clip-path="url(#clip3)"><path d="M0 0 1073.78 0 1073.78 604 0 604Z" stroke="#000000" stroke-width="0.559259" stroke-miterlimit="10" fill="#153247" transform="matrix(1.00021 0 0 1 172 58)"/><path d="M307.816 289.21C307.816 291.81 305.708 293.919 303.107 293.919 300.507 293.919 298.398 291.81 298.398 289.21 298.398 286.609 300.507 284.501 303.107 284.501 305.708 284.501 307.816 286.609 307.816 289.21Z" fill="#FFE350" transform="matrix(1.00021 0 0 1 172 58)"/><path d="M210.981 441.351C210.981 443.951 208.872 446.06 206.272 446.06 203.671 446.06 201.563 443.951 201.563 441.351 201.563 438.75 203.671 436.642 206.272 436.642 208.872 436.642 210.981 438.75 210.981 441.351Z" fill="#FFE350" transform="matrix(1.00021 0 0 1 172 58)"/><path d="M566.658 219.856C566.658 222.849 564.232 225.275 561.239 225.275 558.246 225.275 555.82 222.849 555.82 219.856 555.82 216.863 558.246 214.437 561.239 214.437 564.232 214.437 566.658 216.863 566.658 219.856Z" fill="#FFE350" transform="matrix(1.00021 0 0 1 172 58)"/><path d="M271.381 78.369C271.381 81.362 268.954 83.7882 265.961 83.7882 262.968 83.7882 260.542 81.362 260.542 78.369 260.542 75.376 262.968 72.9498 265.961 72.9498 268.954 72.9498 271.381 75.376 271.381 78.369Z" fill="#FFE350" transform="matrix(1.00021 0 0 1 172 58)"/><path d="M576.227 383.333C576.227 385.974 574.086 388.115 571.445 388.115 568.805 388.115 566.664 385.974 566.664 383.333 566.664 380.692 568.805 378.551 571.445 378.551 574.086 378.551 576.227 380.692 576.227 383.333Z" fill="#FFE350" transform="matrix(1.00021 0 0 1 172 58)"/><path d="M836.115 172.957C836.115 175.597 833.974 177.738 831.333 177.738 828.692 177.738 826.552 175.597 826.552 172.957 826.552 170.316 828.692 168.175 831.333 168.175 833.974 168.175 836.115 170.316 836.115 172.957Z" fill="#FFE350" transform="matrix(1.00021 0 0 1 172 58)"/><path d="M860.817 303.689C860.817 306.33 858.677 308.471 856.036 308.471 853.395 308.471 851.254 306.33 851.254 303.689 851.254 301.048 853.395 298.907 856.036 298.907 858.677 298.907 860.817 301.048 860.817 303.689Z" fill="#FFE350" transform="matrix(1.00021 0 0 1 172 58)"/><path d="M-23.1981 551.799C-12.1191 532.314-11.8563 523.07 23.2148 507.416 36.0946 501.672 69.6669 494.575 106.036 511.415 140.38 527.32 138.266 532.197 163.153 547.269 199.029 568.996 209.487 562.632 222.183 558.694 270.15 543.801 264.82 507.422 319.259 502.506 360.23 498.803 400.62 549.875 448.162 552.408 494.514 554.88 510.559 503.311 559.908 505.71 597.093 507.517 581.49 513.378 617.226 515.861 656.117 518.562 692.05 489.553 715.466 500.475 715.086 539.696 708.995 566.888 708.609 606.103L-20.234 606.103C-22.1243 571.451-21.3078 586.456-23.1925 551.804Z" fill="#23B7DE" transform="matrix(1.00021 0 0 1 172 58)"/><path d="M585.807 249.905C585.807 252.546 583.666 254.687 581.026 254.687 578.385 254.687 576.244 252.546 576.244 249.905 576.244 247.264 578.385 245.123 581.026 245.123 583.666 245.123 585.807 247.264 585.807 249.905Z" fill="#FFE350" transform="matrix(1.00021 0 0 1 172 58)"/><path d="M390.542 378.546C390.542 381.187 388.401 383.327 385.76 383.327 383.119 383.327 380.979 381.187 380.979 378.546 380.979 375.905 383.119 373.764 385.76 373.764 388.401 373.764 390.542 375.905 390.542 378.546Z" fill="#FFE350" transform="matrix(1.00021 0 0 1 172 58)"/><path d="M870.386 43.2028C870.386 45.8436 868.245 47.9844 865.605 47.9844 862.964 47.9844 860.823 45.8436 860.823 43.2028 860.823 40.5619 862.964 38.4211 865.605 38.4211 868.245 38.4211 870.386 40.5619 870.386 43.2028Z" fill="#FFE350" transform="matrix(1.00021 0 0 1 172 58)"/><path d="M72.6198 240.336C72.6198 242.977 70.479 245.118 67.8382 245.118 65.1973 245.118 63.0565 242.977 63.0565 240.336 63.0565 237.695 65.1973 235.554 67.8382 235.554 70.479 235.554 72.6198 237.695 72.6198 240.336Z" fill="#FFE350" transform="matrix(1.00021 0 0 1 172 58)"/><path d="M709.89 104.99C709.493 104.934-131.7 33.3542-131.7 33.3542L-148.075 169.651-122.701 284.501 711.154 173.672C728.362 171.732 745.213 157.661 744.866 138.696 744.514 119.726 730.135 107.764 709.89 104.984Z" stroke="#000000" stroke-width="0.559259" stroke-miterlimit="10" fill="#337AAD" transform="matrix(1.00021 0 0 1 172 58)"/><path d="M1137.18 603.972C1105.9 580.869 1087.5 563.118 1026.65 538.617 986.835 522.583 884.234 497.808 856.919 490.521 802.464 476.002 711.663 465.718 604.57 499.133 573.655 508.78 517.835 543.052 482.915 583.095 475.812 591.238 470.879 598.771 467.753 604 690.892 603.989 914.036 603.983 1137.18 603.972Z" fill="#894377" transform="matrix(1.00021 0 0 1 172 58)"/><path d="M1032.95 540.943C1051.3 549.204 1052.15 570.338 1032.95 574.807 1030.05 575.483 977.261 597.11 953.313 573.431 919.931 540.423 841.02 536.816 841.02 536.816 827.424 528.606 746.986 533.287 716.853 533.449 669.584 533.712 636.901 533.897 610.616 517.46 604.548 513.668 598.642 508.876 593.24 503.551 597.513 501.756 601.511 500.274 605.163 499.133 712.256 465.718 803.057 475.997 857.512 490.521 884.826 497.802 987.428 522.583 1027.24 538.617 1029.19 539.4 1031.09 540.177 1032.95 540.943Z" fill="#662938" transform="matrix(1.00021 0 0 1 172 58)"/><path d="M811.989 497.506C811.989 502.661 773.609 506.84 726.265 506.84 678.922 506.84 640.542 502.661 640.542 497.506 640.542 492.351 678.922 488.172 726.265 488.172 773.609 488.172 811.989 492.351 811.989 497.506Z" fill="#13003D" fill-opacity="0.49" transform="matrix(1.00021 0 0 1 172 58)"/><path d="M790.854 493.708 760.011 180.143 696.613 180.143 660.631 493.708 790.854 493.708Z" fill="#3A006F" transform="matrix(1.00021 0 0 1 172 58)"/><path d="M660.631 493.708 697.525 493.708 717.927 180.143 696.613 180.143 660.631 493.708Z" transform="matrix(1.00021 0 0 1 172 58)"/><path d="M783.942 423.935 790.854 494.189 660.631 494.189 668.69 423.935 783.942 423.935Z" fill="#64006F" transform="matrix(1.00021 0 0 1 172 58)"/><path d="M660.631 494.189 689.623 494.189 697.687 423.935 668.69 423.935 660.631 494.189Z" fill="#7529A8" transform="matrix(1.00021 0 0 1 172 58)"/><path d="M674.372 373.764 779.194 373.602 772.633 308.471 681.866 308.471 674.372 373.764Z" fill="#64006F" transform="matrix(1.00021 0 0 1 172 58)"/><path d="M686.77 265.9 768.719 266.638 763.344 214.04 692.698 214.258 686.77 265.9Z" fill="#64006F" transform="matrix(1.00021 0 0 1 172 58)"/><path d="M718.05 214.431 692.698 214.431 686.77 266.073 711.987 266.241" fill="#7529A8" transform="matrix(1.00021 0 0 1 172 58)"/><path d="M674.372 373.764 700.875 373.719 708.363 308.471 681.866 308.471 674.372 373.764Z" fill="#7529A8" transform="matrix(1.00021 0 0 1 172 58)"/><path d="M759.871 180.165 696.473 180.165 695.21 191.194C709.359 207.194 728.267 223.1 752.914 233.435 757.578 235.392 761.767 237.126 765.604 238.373L759.877 180.165Z" transform="matrix(1.00021 0 0 1 172 58)"/><path d="M777.035 171.447 764.821 171.447 764.821 104.8 766.968 104.8C770.15 104.8 772.756 102.193 772.756 99.0113L772.756 92.9657C772.756 89.7835 770.15 87.1773 766.968 87.1773L755.973 87.1773C759.155 87.1773 761.761 84.5712 761.761 81.389L761.761 75.8691C761.761 72.6869 759.155 70.0808 755.973 70.0808L745.286 70.0808C748.468 70.0808 751.074 67.4746 751.074 64.2924L751.074 59.3821C751.074 56.2 748.468 53.5938 745.286 53.5938L736.03 53.5938C736.472 52.7773 736.723 51.8433 736.723 50.859L736.723 49.0023C736.723 45.8201 734.117 43.214 730.935 43.214L720.555 43.214C717.373 43.214 714.767 45.8201 714.767 49.0023L714.767 50.859C714.767 51.8489 715.019 52.7773 715.46 53.5938L704.963 53.5938C701.781 53.5938 699.175 56.2 699.175 59.3821L699.175 64.2924C699.175 67.4746 701.781 70.0808 704.963 70.0808L691.222 70.0808C688.04 70.0808 685.434 72.6869 685.434 75.8691L685.434 81.389C685.434 84.5712 688.04 87.1773 691.222 87.1773L680.842 87.1773C677.66 87.1773 675.054 89.7835 675.054 92.9657L675.054 99.0113C675.054 102.193 677.66 104.8 680.842 104.8L685.434 104.8 685.434 171.447 674.439 171.447C672.09 171.447 670.166 173.37 670.166 175.719L670.166 181.519C670.166 183.868 672.09 185.792 674.439 185.792L777.035 185.792C779.384 185.792 781.308 183.868 781.308 181.519L781.308 175.719C781.308 173.37 779.384 171.447 777.035 171.447ZM696.44 166.961C696.44 168.991 694.779 170.658 692.743 170.658 690.708 170.658 689.047 168.997 689.047 166.961L689.047 108.988C689.047 106.958 690.708 105.292 692.743 105.292 694.779 105.292 696.44 106.953 696.44 108.988L696.44 166.961ZM709.459 166.961C709.459 168.991 707.798 170.658 705.763 170.658 703.727 170.658 702.066 168.997 702.066 166.961L702.066 108.988C702.066 106.958 703.727 105.292 705.763 105.292 707.798 105.292 709.459 106.953 709.459 108.988L709.459 166.961ZM722.479 166.961C722.479 168.991 720.818 170.658 718.782 170.658L718.782 170.658C716.752 170.658 715.086 168.997 715.086 166.961L715.086 108.988C715.086 106.958 716.747 105.292 718.782 105.292L718.782 105.292C720.812 105.292 722.479 106.953 722.479 108.988L722.479 166.961ZM735.499 166.961C735.499 168.991 733.838 170.658 731.802 170.658 729.766 170.658 728.105 168.997 728.105 166.961L728.105 108.988C728.105 106.958 729.766 105.292 731.802 105.292 733.838 105.292 735.499 106.953 735.499 108.988L735.499 166.961ZM748.518 166.961C748.518 168.991 746.857 170.658 744.821 170.658 742.786 170.658 741.125 168.997 741.125 166.961L741.125 108.988C741.125 106.958 742.786 105.292 744.821 105.292 746.857 105.292 748.518 106.953 748.518 108.988L748.518 166.961ZM761.538 166.961C761.538 168.991 759.877 170.658 757.841 170.658L757.841 170.658C755.811 170.658 754.144 168.997 754.144 166.961L754.144 108.988C754.144 106.958 755.805 105.292 757.841 105.292L757.841 105.292C759.871 105.292 761.538 106.953 761.538 108.988L761.538 166.961Z" fill="#6101B5" transform="matrix(1.00021 0 0 1 172 58)"/><path d="M685.434 143.31 764.82 143.31 764.82 171.721 685.434 171.721Z" fill="#F52FFF" transform="matrix(1.00021 0 0 1 172 58)"/><path d="M770.944 92.3617 770.944 100.135C770.944 101.886 769.233 103.373 766.923 103.815 767.052 103.491 767.119 103.155 767.119 102.803L767.119 95.0349C767.119 92.9321 764.658 91.2152 761.661 91.2152L680.881 91.2152C680.378 91.2152 679.897 91.2655 679.438 91.3494 680.082 89.7331 682.201 88.5419 684.707 88.5419L765.48 88.5419C768.484 88.5419 770.944 90.2589 770.944 92.3617Z" fill="#FFFFFF" transform="matrix(1.00021 0 0 1 172 58)"/><path d="M759.603 75.0023 759.603 81.8588C759.603 83.4023 758.389 84.7166 756.75 85.1081 756.84 84.8228 756.89 84.5209 756.89 84.2188L756.89 77.3623C756.89 75.5056 755.145 73.99 753.02 73.99L695.741 73.99C695.383 73.99 695.042 74.0347 694.717 74.1074 695.17 72.6813 696.675 71.6299 698.453 71.6299L755.733 71.6299C757.863 71.6299 759.608 73.1455 759.608 75.0023Z" fill="#FFFFFF" transform="matrix(1.00021 0 0 1 172 58)"/><path d="M748.585 59.315 748.585 65.3494C748.585 66.7084 747.718 67.8605 746.544 68.2073 746.611 67.9556 746.645 67.6927 746.645 67.4243L746.645 61.3955C746.645 59.7624 745.392 58.4314 743.871 58.4314L702.81 58.4314C702.553 58.4314 702.312 58.4706 702.077 58.5377 702.402 57.2849 703.481 56.3566 704.756 56.3566L745.817 56.3566C747.344 56.3566 748.596 57.6876 748.596 59.3206Z" fill="#FFFFFF" transform="matrix(1.00021 0 0 1 172 58)"/><path d="M734.598 47.1847 734.598 51.0771C734.598 51.9552 734.319 52.699 733.944 52.9227 733.966 52.7605 733.977 52.5927 733.977 52.4194L733.977 48.5325C733.977 47.4811 733.575 46.6199 733.088 46.6199L719.918 46.6199C719.834 46.6199 719.755 46.6422 719.683 46.687 719.789 45.876 720.136 45.2776 720.538 45.2776L733.709 45.2776C734.201 45.2776 734.598 46.1389 734.598 47.1903Z" fill="#FFFFFF" transform="matrix(1.00021 0 0 1 172 58)"/><path d="M767.964 182.402C767.292 183.627 765.055 184.533 762.421 184.533L677.324 184.533C674.159 184.533 671.575 183.23 671.575 181.636L671.575 175.747C671.575 174.422 673.37 173.292 675.803 172.957 675.675 173.203 675.602 173.454 675.602 173.723L675.602 179.612C675.602 181.2 678.186 182.509 681.351 182.509L766.442 182.509C766.968 182.509 767.477 182.469 767.964 182.402Z" fill="#FFFFFF" transform="matrix(1.00021 0 0 1 172 58)"/><path d="M451.798 506.845C451.798 509.486 449.657 511.627 447.016 511.627 444.375 511.627 442.234 509.486 442.234 506.845 442.234 504.205 444.375 502.064 447.016 502.064 449.657 502.064 451.798 504.205 451.798 506.845Z" fill="#FFE350" transform="matrix(1.00021 0 0 1 172 58)"/><path d="M328.425 472.065C328.425 474.706 326.284 476.847 323.643 476.847 321.002 476.847 318.862 474.706 318.862 472.065 318.862 469.424 321.002 467.283 323.643 467.283 326.284 467.283 328.425 469.424 328.425 472.065Z" fill="#FFE350" transform="matrix(1.00021 0 0 1 172 58)"/><path d="M506.197 45.272C506.197 47.9129 504.056 50.0537 501.415 50.0537 498.774 50.0537 496.633 47.9129 496.633 45.272 496.633 42.6312 498.774 40.4904 501.415 40.4904 504.056 40.4904 506.197 42.6312 506.197 45.272Z" fill="#FFE350" transform="matrix(1.00021 0 0 1 172 58)"/><path d="M870.386 481.628C870.386 484.269 868.245 486.41 865.605 486.41 862.964 486.41 860.823 484.269 860.823 481.628 860.823 478.988 862.964 476.847 865.605 476.847 868.245 476.847 870.386 478.988 870.386 481.628Z" fill="#FFE350" transform="matrix(1.00021 0 0 1 172 58)"/><path d="M1041.3 214.431C1041.3 217.072 1039.16 219.213 1036.52 219.213 1033.88 219.213 1031.74 217.072 1031.74 214.431 1031.74 211.79 1033.88 209.65 1036.52 209.65 1039.16 209.65 1041.3 211.79 1041.3 214.431Z" fill="#FFE350" transform="matrix(1.00021 0 0 1 172 58)"/><path d="M2.85222 606.092C14.1884 588.715 40.1492 554.696 85.6729 536.408 100.801 530.329 125.548 520.391 155.357 525.558 179.584 529.758 181.72 539.534 222.183 558.683 246.717 570.299 270.709 581.658 301.004 584.387 312.329 585.41 345.622 587.737 380.397 571.25 419.238 552.833 414.238 532.515 446.652 518.702 490.235 500.134 539.646 519.669 560.311 527.84 600.98 543.919 599.174 558.018 636.845 568.962 651.157 573.123 691.602 584.873 729.375 567.821 765.973 551.295 759.698 525.95 792.772 508.993 836.814 486.416 904.087 502.562 934.422 542.118 950.388 562.939 971.596 601.338 958.554 602.663 935.993 604.951 769.927 603.804 2.86341 606.092Z" fill="#00258C" transform="matrix(1.00021 0 0 1 172 58)"/><path d="M1177.85 470.488C1152.64 404.518 1130.62 366.611 1113.97 322.603 1106.2 302.095 1091.26 283.192 1065.13 272.913 1016.38 253.73 942.24 388.271 937.475 395.424 899.58 452.357 896.599 480.588 850.085 537.644 826.317 566.798 803.566 588.285 787.543 602.244L1177.84 601.92 1177.84 470.482Z" fill="#5A1C77" transform="matrix(1.00021 0 0 1 172 58)"/><path d="M1150.69 404.596C1160.41 427.654 1161.2 418.706 1150.69 431.027 1137.18 446.876 1088.37 468.29 1076.38 451.154 1075.54 449.958 1077.4 446.378 1098.65 410.888 1100.16 408.371 1119.21 380.906 1096.08 375.761 1091.25 374.693 1087.11 383.171 1078.95 393.752 1065.29 411.464 1046.28 430.596 1036.11 414.316 1027.54 400.609 1039.73 388.612 1061.22 359.486 1075.82 339.705 1094.03 334.443 1081.84 318.403 1074.29 308.471 1031.53 364.727 1007.84 348.419 991.13 336.926 1024.13 302.296 1017.26 306.368 1002.82 314.936 1009.89 301.318 1005.45 300.982 1025.77 279.971 1047.47 265.76 1065.65 272.913 1091.78 283.192 1106.72 302.089 1114.48 322.603 1124.7 349.599 1136.94 374.301 1150.69 404.596Z" fill="#ED1C77" transform="matrix(1.00021 0 0 1 172 58)"/><path d="M1172.95 602.814C1044.48 602.965 916.011 603.111 787.549 603.262 803.572 583.609 833.492 559.231 862.534 521.409 875.174 504.95 888.165 483.949 895.089 469.146 919.456 464.062 926.726 457.178 955.064 462.256 1012.16 472.49 1052.87 504.759 1125.55 562.358 1148.49 580.545 1164.37 593.217 1172.95 602.809Z" fill="#13003D" transform="matrix(1.00021 0 0 1 172 58)"/><path d="M954.275 423.935C954.275 426.576 952.134 428.717 949.493 428.717 946.853 428.717 944.712 426.576 944.712 423.935 944.712 421.294 946.853 419.154 949.493 419.154 952.134 419.154 954.275 421.294 954.275 423.935Z" fill="#FFE350" transform="matrix(1.00021 0 0 1 172 58)"/><path d="M1073.78 293.919C1073.78 296.56 1071.64 298.7 1069 298.7 1066.36 298.7 1064.21 296.56 1064.21 293.919 1064.21 291.278 1066.36 289.137 1069 289.137 1071.64 289.137 1073.78 291.278 1073.78 293.919Z" fill="#FFE350" transform="matrix(1.00021 0 0 1 172 58)"/><path d="M427.369 184.533C427.369 187.174 425.228 189.315 422.587 189.315 419.947 189.315 417.806 187.174 417.806 184.533 417.806 181.892 419.947 179.752 422.587 179.752 425.228 179.752 427.369 181.892 427.369 184.533Z" fill="#FFE350" transform="matrix(1.00021 0 0 1 172 58)"/><path d="M90.6727 364.257C90.6727 366.898 88.5319 369.038 85.891 369.038 83.2502 369.038 81.1094 366.898 81.1094 364.257 81.1094 361.616 83.2502 359.475 85.891 359.475 88.5319 359.475 90.6727 361.616 90.6727 364.257Z" fill="#FFE350" transform="matrix(1.00021 0 0 1 172 58)"/><path d="M77.4015 33.3542C77.4015 35.9951 75.2606 38.1359 72.6198 38.1359 69.979 38.1359 67.8381 35.9951 67.8381 33.3542 67.8381 30.7134 69.979 28.5726 72.6198 28.5726 75.2606 28.5726 77.4015 30.7134 77.4015 33.3542Z" fill="#FFE350" transform="matrix(1.00021 0 0 1 172 58)"/><path d="M-94.5651 573.727C-88.0777 564.768-70.7575 543.348-41.6257 534.059-32.3531 531.101-9.93804 523.953 13.4781 534.059 33.1137 542.532 32.5377 554.114 62.1001 574.969 75.2595 584.253 86.3161 592.054 102.076 596.042 132.667 603.787 159.059 591.629 167.985 587.362 194.382 574.745 193.649 562.682 228.491 541.497 243.977 532.079 256.784 524.289 274.949 520.424 313.448 512.226 346.662 527.89 358.144 534.059 384.446 548.197 385.447 560.244 415.407 572.486 435.45 580.679 451.613 582.071 456.462 582.401 461.736 582.765 485.297 584.029 514.804 572.486 521.884 569.712 526.626 567.257 558.023 547.694 600.314 521.341 606.662 516.487 612.663 513.445 612.663 513.445 614.576 512.528 616.365 511.739 625.8 507.589 669.439 494.01 714.459 515.044 733.726 524.043 728.239 527.7 752.701 541.156 773.243 552.453 794.635 564.214 816.669 562.861 857.255 560.361 859.229 515.866 906.912 503.462 937.335 495.548 966.965 505.744 986.874 512.6 1028.2 526.828 1030.99 544.081 1055.41 543.443 1088.63 542.577 1093.5 510.408 1131.95 505.749 1134.88 505.397 1175.03 501.191 1198.96 530.771 1219.79 556.536 1215.34 604.045 1210.48 604.14 1199.38 604.364 70.3324 604.039-94.3023 603.877-94.8951 595.756-94.7106 596.098-94.7497 587.127-94.7721 582.547-94.705 578.078-94.5707 573.727Z" fill="#0054FF" transform="matrix(1.00021 0 0 1 172 58)"/><path d="M674.948 570.668C674.948 573.309 672.807 575.45 670.166 575.45 667.525 575.45 665.384 573.309 665.384 570.668 665.384 568.027 667.525 565.887 670.166 565.887 672.807 565.887 674.948 568.027 674.948 570.668Z" fill="#FFE350" transform="matrix(1.00021 0 0 1 172 58)"/><path d="M1019.79 16.3639C1019.79 19.0048 1017.65 21.1456 1015.01 21.1456 1012.36 21.1456 1010.22 19.0048 1010.22 16.3639 1010.22 13.7231 1012.36 11.5823 1015.01 11.5823 1017.65 11.5823 1019.79 13.7231 1019.79 16.3639Z" fill="#FFE350" transform="matrix(1.00021 0 0 1 172 58)"/><path d="M16.9735 531.867C16.9735 534.508 14.8327 536.648 12.1919 536.648 9.55101 536.648 7.41019 534.508 7.41019 531.867 7.41019 529.226 9.55101 527.085 12.1919 527.085 14.8327 527.085 16.9735 529.226 16.9735 531.867Z" fill="#FFE350" transform="matrix(1.00021 0 0 1 172 58)"/></g></g></g></g></svg>